G04 #@! TF.GenerationSoftware,KiCad,Pcbnew,(5.1.2)-2*
G04 #@! TF.CreationDate,2019-09-19T18:24:34+10:00*
G04 #@! TF.ProjectId,PecsRemoteHat.lib,50656373-5265-46d6-9f74-654861742e6c,rev?*
G04 #@! TF.SameCoordinates,Original*
G04 #@! TF.FileFunction,Soldermask,Bot*
G04 #@! TF.FilePolarity,Negative*
%FSLAX46Y46*%
G04 Gerber Fmt 4.6, Leading zero omitted, Abs format (unit mm)*
G04 Created by KiCad (PCBNEW (5.1.2)-2) date 2019-09-19 18:24:34*
%MOMM*%
%LPD*%
G04 APERTURE LIST*
%ADD10C,0.100000*%
G04 APERTURE END LIST*
D10*
G36*
X134744071Y-137684063D02*
G01*
X134940300Y-137743589D01*
X135121146Y-137840253D01*
X135162437Y-137874140D01*
X135279660Y-137970340D01*
X135409748Y-138128855D01*
X135474879Y-138250707D01*
X135506411Y-138309699D01*
X135565937Y-138505928D01*
X135581000Y-138658868D01*
X135581000Y-140741132D01*
X135565937Y-140894072D01*
X135506411Y-141090301D01*
X135506410Y-141090303D01*
X135409748Y-141271145D01*
X135279660Y-141429660D01*
X135121145Y-141559748D01*
X134940303Y-141656410D01*
X134940301Y-141656411D01*
X134744072Y-141715937D01*
X134540000Y-141736036D01*
X134335929Y-141715937D01*
X134139700Y-141656411D01*
X134139698Y-141656410D01*
X133958856Y-141559748D01*
X133800341Y-141429660D01*
X133670253Y-141271145D01*
X133573591Y-141090303D01*
X133573590Y-141090301D01*
X133514064Y-140894072D01*
X133499001Y-140741132D01*
X133499000Y-138658869D01*
X133514063Y-138505929D01*
X133573589Y-138309700D01*
X133670253Y-138128854D01*
X133736638Y-138047963D01*
X133800340Y-137970340D01*
X133958855Y-137840252D01*
X134139697Y-137743590D01*
X134139699Y-137743589D01*
X134335928Y-137684063D01*
X134540000Y-137663964D01*
X134744071Y-137684063D01*
X134744071Y-137684063D01*
G37*
G36*
X130581000Y-141731000D02*
G01*
X128499000Y-141731000D01*
X128499000Y-137669000D01*
X130581000Y-137669000D01*
X130581000Y-141731000D01*
X130581000Y-141731000D01*
G37*
G36*
X122821000Y-140601000D02*
G01*
X121019000Y-140601000D01*
X121019000Y-138799000D01*
X122821000Y-138799000D01*
X122821000Y-140601000D01*
X122821000Y-140601000D01*
G37*
G36*
X99961000Y-140601000D02*
G01*
X98159000Y-140601000D01*
X98159000Y-138799000D01*
X99961000Y-138799000D01*
X99961000Y-140601000D01*
X99961000Y-140601000D01*
G37*
G36*
X63679294Y-137528633D02*
G01*
X63851695Y-137580931D01*
X64010583Y-137665858D01*
X64149849Y-137780151D01*
X64264142Y-137919417D01*
X64349069Y-138078305D01*
X64401367Y-138250706D01*
X64419025Y-138430000D01*
X64401367Y-138609294D01*
X64349069Y-138781695D01*
X64264142Y-138940583D01*
X64149849Y-139079849D01*
X64010583Y-139194142D01*
X63851695Y-139279069D01*
X63679294Y-139331367D01*
X63544931Y-139344600D01*
X63455069Y-139344600D01*
X63320706Y-139331367D01*
X63148305Y-139279069D01*
X62989417Y-139194142D01*
X62850151Y-139079849D01*
X62735858Y-138940583D01*
X62650931Y-138781695D01*
X62598633Y-138609294D01*
X62580975Y-138430000D01*
X62598633Y-138250706D01*
X62650931Y-138078305D01*
X62735858Y-137919417D01*
X62850151Y-137780151D01*
X62989417Y-137665858D01*
X63148305Y-137580931D01*
X63320706Y-137528633D01*
X63455069Y-137515400D01*
X63544931Y-137515400D01*
X63679294Y-137528633D01*
X63679294Y-137528633D01*
G37*
G36*
X66219294Y-137528633D02*
G01*
X66391695Y-137580931D01*
X66550583Y-137665858D01*
X66689849Y-137780151D01*
X66804142Y-137919417D01*
X66889069Y-138078305D01*
X66941367Y-138250706D01*
X66959025Y-138430000D01*
X66941367Y-138609294D01*
X66889069Y-138781695D01*
X66804142Y-138940583D01*
X66689849Y-139079849D01*
X66550583Y-139194142D01*
X66391695Y-139279069D01*
X66219294Y-139331367D01*
X66084931Y-139344600D01*
X65995069Y-139344600D01*
X65860706Y-139331367D01*
X65688305Y-139279069D01*
X65529417Y-139194142D01*
X65390151Y-139079849D01*
X65275858Y-138940583D01*
X65190931Y-138781695D01*
X65138633Y-138609294D01*
X65120975Y-138430000D01*
X65138633Y-138250706D01*
X65190931Y-138078305D01*
X65275858Y-137919417D01*
X65390151Y-137780151D01*
X65529417Y-137665858D01*
X65688305Y-137580931D01*
X65860706Y-137528633D01*
X65995069Y-137515400D01*
X66084931Y-137515400D01*
X66219294Y-137528633D01*
X66219294Y-137528633D01*
G37*
G36*
X99170443Y-136265519D02*
G01*
X99236627Y-136272037D01*
X99406466Y-136323557D01*
X99562991Y-136407222D01*
X99598729Y-136436552D01*
X99700186Y-136519814D01*
X99783448Y-136621271D01*
X99812778Y-136657009D01*
X99896443Y-136813534D01*
X99947963Y-136983373D01*
X99965359Y-137160000D01*
X99947963Y-137336627D01*
X99896443Y-137506466D01*
X99812778Y-137662991D01*
X99783448Y-137698729D01*
X99700186Y-137800186D01*
X99598729Y-137883448D01*
X99562991Y-137912778D01*
X99406466Y-137996443D01*
X99236627Y-138047963D01*
X99170442Y-138054482D01*
X99104260Y-138061000D01*
X99015740Y-138061000D01*
X98949558Y-138054482D01*
X98883373Y-138047963D01*
X98713534Y-137996443D01*
X98557009Y-137912778D01*
X98521271Y-137883448D01*
X98419814Y-137800186D01*
X98336552Y-137698729D01*
X98307222Y-137662991D01*
X98223557Y-137506466D01*
X98172037Y-137336627D01*
X98154641Y-137160000D01*
X98172037Y-136983373D01*
X98223557Y-136813534D01*
X98307222Y-136657009D01*
X98336552Y-136621271D01*
X98419814Y-136519814D01*
X98521271Y-136436552D01*
X98557009Y-136407222D01*
X98713534Y-136323557D01*
X98883373Y-136272037D01*
X98949557Y-136265519D01*
X99015740Y-136259000D01*
X99104260Y-136259000D01*
X99170443Y-136265519D01*
X99170443Y-136265519D01*
G37*
G36*
X122030443Y-136265519D02*
G01*
X122096627Y-136272037D01*
X122266466Y-136323557D01*
X122422991Y-136407222D01*
X122458729Y-136436552D01*
X122560186Y-136519814D01*
X122643448Y-136621271D01*
X122672778Y-136657009D01*
X122756443Y-136813534D01*
X122807963Y-136983373D01*
X122825359Y-137160000D01*
X122807963Y-137336627D01*
X122756443Y-137506466D01*
X122672778Y-137662991D01*
X122643448Y-137698729D01*
X122560186Y-137800186D01*
X122458729Y-137883448D01*
X122422991Y-137912778D01*
X122266466Y-137996443D01*
X122096627Y-138047963D01*
X122030442Y-138054482D01*
X121964260Y-138061000D01*
X121875740Y-138061000D01*
X121809558Y-138054482D01*
X121743373Y-138047963D01*
X121573534Y-137996443D01*
X121417009Y-137912778D01*
X121381271Y-137883448D01*
X121279814Y-137800186D01*
X121196552Y-137698729D01*
X121167222Y-137662991D01*
X121083557Y-137506466D01*
X121032037Y-137336627D01*
X121014641Y-137160000D01*
X121032037Y-136983373D01*
X121083557Y-136813534D01*
X121167222Y-136657009D01*
X121196552Y-136621271D01*
X121279814Y-136519814D01*
X121381271Y-136436552D01*
X121417009Y-136407222D01*
X121573534Y-136323557D01*
X121743373Y-136272037D01*
X121809557Y-136265519D01*
X121875740Y-136259000D01*
X121964260Y-136259000D01*
X122030443Y-136265519D01*
X122030443Y-136265519D01*
G37*
G36*
X63679294Y-134988633D02*
G01*
X63851695Y-135040931D01*
X64010583Y-135125858D01*
X64149849Y-135240151D01*
X64264142Y-135379417D01*
X64349069Y-135538305D01*
X64401367Y-135710706D01*
X64419025Y-135890000D01*
X64401367Y-136069294D01*
X64349069Y-136241695D01*
X64264142Y-136400583D01*
X64149849Y-136539849D01*
X64010583Y-136654142D01*
X63851695Y-136739069D01*
X63679294Y-136791367D01*
X63544931Y-136804600D01*
X63455069Y-136804600D01*
X63320706Y-136791367D01*
X63148305Y-136739069D01*
X62989417Y-136654142D01*
X62850151Y-136539849D01*
X62735858Y-136400583D01*
X62650931Y-136241695D01*
X62598633Y-136069294D01*
X62580975Y-135890000D01*
X62598633Y-135710706D01*
X62650931Y-135538305D01*
X62735858Y-135379417D01*
X62850151Y-135240151D01*
X62989417Y-135125858D01*
X63148305Y-135040931D01*
X63320706Y-134988633D01*
X63455069Y-134975400D01*
X63544931Y-134975400D01*
X63679294Y-134988633D01*
X63679294Y-134988633D01*
G37*
G36*
X66219294Y-134988633D02*
G01*
X66391695Y-135040931D01*
X66550583Y-135125858D01*
X66689849Y-135240151D01*
X66804142Y-135379417D01*
X66889069Y-135538305D01*
X66941367Y-135710706D01*
X66959025Y-135890000D01*
X66941367Y-136069294D01*
X66889069Y-136241695D01*
X66804142Y-136400583D01*
X66689849Y-136539849D01*
X66550583Y-136654142D01*
X66391695Y-136739069D01*
X66219294Y-136791367D01*
X66084931Y-136804600D01*
X65995069Y-136804600D01*
X65860706Y-136791367D01*
X65688305Y-136739069D01*
X65529417Y-136654142D01*
X65390151Y-136539849D01*
X65275858Y-136400583D01*
X65190931Y-136241695D01*
X65138633Y-136069294D01*
X65120975Y-135890000D01*
X65138633Y-135710706D01*
X65190931Y-135538305D01*
X65275858Y-135379417D01*
X65390151Y-135240151D01*
X65529417Y-135125858D01*
X65688305Y-135040931D01*
X65860706Y-134988633D01*
X65995069Y-134975400D01*
X66084931Y-134975400D01*
X66219294Y-134988633D01*
X66219294Y-134988633D01*
G37*
G36*
X79739928Y-133636764D02*
G01*
X79761009Y-133643160D01*
X79780445Y-133653548D01*
X79797476Y-133667524D01*
X79811452Y-133684555D01*
X79821840Y-133703991D01*
X79828236Y-133725072D01*
X79831000Y-133753140D01*
X79831000Y-134216860D01*
X79828236Y-134244928D01*
X79821840Y-134266009D01*
X79811452Y-134285445D01*
X79797476Y-134302476D01*
X79780445Y-134316452D01*
X79761009Y-134326840D01*
X79739928Y-134333236D01*
X79711860Y-134336000D01*
X77898140Y-134336000D01*
X77870072Y-134333236D01*
X77848991Y-134326840D01*
X77829555Y-134316452D01*
X77812524Y-134302476D01*
X77798548Y-134285445D01*
X77788160Y-134266009D01*
X77781764Y-134244928D01*
X77779000Y-134216860D01*
X77779000Y-133753140D01*
X77781764Y-133725072D01*
X77788160Y-133703991D01*
X77798548Y-133684555D01*
X77812524Y-133667524D01*
X77829555Y-133653548D01*
X77848991Y-133643160D01*
X77870072Y-133636764D01*
X77898140Y-133634000D01*
X79711860Y-133634000D01*
X79739928Y-133636764D01*
X79739928Y-133636764D01*
G37*
G36*
X84689928Y-133636764D02*
G01*
X84711009Y-133643160D01*
X84730445Y-133653548D01*
X84747476Y-133667524D01*
X84761452Y-133684555D01*
X84771840Y-133703991D01*
X84778236Y-133725072D01*
X84781000Y-133753140D01*
X84781000Y-134216860D01*
X84778236Y-134244928D01*
X84771840Y-134266009D01*
X84761452Y-134285445D01*
X84747476Y-134302476D01*
X84730445Y-134316452D01*
X84711009Y-134326840D01*
X84689928Y-134333236D01*
X84661860Y-134336000D01*
X82848140Y-134336000D01*
X82820072Y-134333236D01*
X82798991Y-134326840D01*
X82779555Y-134316452D01*
X82762524Y-134302476D01*
X82748548Y-134285445D01*
X82738160Y-134266009D01*
X82731764Y-134244928D01*
X82729000Y-134216860D01*
X82729000Y-133753140D01*
X82731764Y-133725072D01*
X82738160Y-133703991D01*
X82748548Y-133684555D01*
X82762524Y-133667524D01*
X82779555Y-133653548D01*
X82798991Y-133643160D01*
X82820072Y-133636764D01*
X82848140Y-133634000D01*
X84661860Y-133634000D01*
X84689928Y-133636764D01*
X84689928Y-133636764D01*
G37*
G36*
X63679294Y-132448633D02*
G01*
X63851695Y-132500931D01*
X64010583Y-132585858D01*
X64149849Y-132700151D01*
X64264142Y-132839417D01*
X64349069Y-132998305D01*
X64401367Y-133170706D01*
X64419025Y-133350000D01*
X64401367Y-133529294D01*
X64349069Y-133701695D01*
X64264142Y-133860583D01*
X64149849Y-133999849D01*
X64010583Y-134114142D01*
X63851695Y-134199069D01*
X63679294Y-134251367D01*
X63544931Y-134264600D01*
X63455069Y-134264600D01*
X63320706Y-134251367D01*
X63148305Y-134199069D01*
X62989417Y-134114142D01*
X62850151Y-133999849D01*
X62735858Y-133860583D01*
X62650931Y-133701695D01*
X62598633Y-133529294D01*
X62580975Y-133350000D01*
X62598633Y-133170706D01*
X62650931Y-132998305D01*
X62735858Y-132839417D01*
X62850151Y-132700151D01*
X62989417Y-132585858D01*
X63148305Y-132500931D01*
X63320706Y-132448633D01*
X63455069Y-132435400D01*
X63544931Y-132435400D01*
X63679294Y-132448633D01*
X63679294Y-132448633D01*
G37*
G36*
X66219294Y-132448633D02*
G01*
X66391695Y-132500931D01*
X66550583Y-132585858D01*
X66689849Y-132700151D01*
X66804142Y-132839417D01*
X66889069Y-132998305D01*
X66941367Y-133170706D01*
X66959025Y-133350000D01*
X66941367Y-133529294D01*
X66889069Y-133701695D01*
X66804142Y-133860583D01*
X66689849Y-133999849D01*
X66550583Y-134114142D01*
X66391695Y-134199069D01*
X66219294Y-134251367D01*
X66084931Y-134264600D01*
X65995069Y-134264600D01*
X65860706Y-134251367D01*
X65688305Y-134199069D01*
X65529417Y-134114142D01*
X65390151Y-133999849D01*
X65275858Y-133860583D01*
X65190931Y-133701695D01*
X65138633Y-133529294D01*
X65120975Y-133350000D01*
X65138633Y-133170706D01*
X65190931Y-132998305D01*
X65275858Y-132839417D01*
X65390151Y-132700151D01*
X65529417Y-132585858D01*
X65688305Y-132500931D01*
X65860706Y-132448633D01*
X65995069Y-132435400D01*
X66084931Y-132435400D01*
X66219294Y-132448633D01*
X66219294Y-132448633D01*
G37*
G36*
X84689928Y-132366764D02*
G01*
X84711009Y-132373160D01*
X84730445Y-132383548D01*
X84747476Y-132397524D01*
X84761452Y-132414555D01*
X84771840Y-132433991D01*
X84778236Y-132455072D01*
X84781000Y-132483140D01*
X84781000Y-132946860D01*
X84778236Y-132974928D01*
X84771840Y-132996009D01*
X84761452Y-133015445D01*
X84747476Y-133032476D01*
X84730445Y-133046452D01*
X84711009Y-133056840D01*
X84689928Y-133063236D01*
X84661860Y-133066000D01*
X82848140Y-133066000D01*
X82820072Y-133063236D01*
X82798991Y-133056840D01*
X82779555Y-133046452D01*
X82762524Y-133032476D01*
X82748548Y-133015445D01*
X82738160Y-132996009D01*
X82731764Y-132974928D01*
X82729000Y-132946860D01*
X82729000Y-132483140D01*
X82731764Y-132455072D01*
X82738160Y-132433991D01*
X82748548Y-132414555D01*
X82762524Y-132397524D01*
X82779555Y-132383548D01*
X82798991Y-132373160D01*
X82820072Y-132366764D01*
X82848140Y-132364000D01*
X84661860Y-132364000D01*
X84689928Y-132366764D01*
X84689928Y-132366764D01*
G37*
G36*
X79739928Y-132366764D02*
G01*
X79761009Y-132373160D01*
X79780445Y-132383548D01*
X79797476Y-132397524D01*
X79811452Y-132414555D01*
X79821840Y-132433991D01*
X79828236Y-132455072D01*
X79831000Y-132483140D01*
X79831000Y-132946860D01*
X79828236Y-132974928D01*
X79821840Y-132996009D01*
X79811452Y-133015445D01*
X79797476Y-133032476D01*
X79780445Y-133046452D01*
X79761009Y-133056840D01*
X79739928Y-133063236D01*
X79711860Y-133066000D01*
X77898140Y-133066000D01*
X77870072Y-133063236D01*
X77848991Y-133056840D01*
X77829555Y-133046452D01*
X77812524Y-133032476D01*
X77798548Y-133015445D01*
X77788160Y-132996009D01*
X77781764Y-132974928D01*
X77779000Y-132946860D01*
X77779000Y-132483140D01*
X77781764Y-132455072D01*
X77788160Y-132433991D01*
X77798548Y-132414555D01*
X77812524Y-132397524D01*
X77829555Y-132383548D01*
X77848991Y-132373160D01*
X77870072Y-132366764D01*
X77898140Y-132364000D01*
X79711860Y-132364000D01*
X79739928Y-132366764D01*
X79739928Y-132366764D01*
G37*
G36*
X84689928Y-131096764D02*
G01*
X84711009Y-131103160D01*
X84730445Y-131113548D01*
X84747476Y-131127524D01*
X84761452Y-131144555D01*
X84771840Y-131163991D01*
X84778236Y-131185072D01*
X84781000Y-131213140D01*
X84781000Y-131676860D01*
X84778236Y-131704928D01*
X84771840Y-131726009D01*
X84761452Y-131745445D01*
X84747476Y-131762476D01*
X84730445Y-131776452D01*
X84711009Y-131786840D01*
X84689928Y-131793236D01*
X84661860Y-131796000D01*
X82848140Y-131796000D01*
X82820072Y-131793236D01*
X82798991Y-131786840D01*
X82779555Y-131776452D01*
X82762524Y-131762476D01*
X82748548Y-131745445D01*
X82738160Y-131726009D01*
X82731764Y-131704928D01*
X82729000Y-131676860D01*
X82729000Y-131213140D01*
X82731764Y-131185072D01*
X82738160Y-131163991D01*
X82748548Y-131144555D01*
X82762524Y-131127524D01*
X82779555Y-131113548D01*
X82798991Y-131103160D01*
X82820072Y-131096764D01*
X82848140Y-131094000D01*
X84661860Y-131094000D01*
X84689928Y-131096764D01*
X84689928Y-131096764D01*
G37*
G36*
X79739928Y-131096764D02*
G01*
X79761009Y-131103160D01*
X79780445Y-131113548D01*
X79797476Y-131127524D01*
X79811452Y-131144555D01*
X79821840Y-131163991D01*
X79828236Y-131185072D01*
X79831000Y-131213140D01*
X79831000Y-131676860D01*
X79828236Y-131704928D01*
X79821840Y-131726009D01*
X79811452Y-131745445D01*
X79797476Y-131762476D01*
X79780445Y-131776452D01*
X79761009Y-131786840D01*
X79739928Y-131793236D01*
X79711860Y-131796000D01*
X77898140Y-131796000D01*
X77870072Y-131793236D01*
X77848991Y-131786840D01*
X77829555Y-131776452D01*
X77812524Y-131762476D01*
X77798548Y-131745445D01*
X77788160Y-131726009D01*
X77781764Y-131704928D01*
X77779000Y-131676860D01*
X77779000Y-131213140D01*
X77781764Y-131185072D01*
X77788160Y-131163991D01*
X77798548Y-131144555D01*
X77812524Y-131127524D01*
X77829555Y-131113548D01*
X77848991Y-131103160D01*
X77870072Y-131096764D01*
X77898140Y-131094000D01*
X79711860Y-131094000D01*
X79739928Y-131096764D01*
X79739928Y-131096764D01*
G37*
G36*
X63679294Y-129908633D02*
G01*
X63851695Y-129960931D01*
X64010583Y-130045858D01*
X64149849Y-130160151D01*
X64264142Y-130299417D01*
X64349069Y-130458305D01*
X64401367Y-130630706D01*
X64419025Y-130810000D01*
X64401367Y-130989294D01*
X64349069Y-131161695D01*
X64264142Y-131320583D01*
X64149849Y-131459849D01*
X64010583Y-131574142D01*
X63851695Y-131659069D01*
X63679294Y-131711367D01*
X63544931Y-131724600D01*
X63455069Y-131724600D01*
X63320706Y-131711367D01*
X63148305Y-131659069D01*
X62989417Y-131574142D01*
X62850151Y-131459849D01*
X62735858Y-131320583D01*
X62650931Y-131161695D01*
X62598633Y-130989294D01*
X62580975Y-130810000D01*
X62598633Y-130630706D01*
X62650931Y-130458305D01*
X62735858Y-130299417D01*
X62850151Y-130160151D01*
X62989417Y-130045858D01*
X63148305Y-129960931D01*
X63320706Y-129908633D01*
X63455069Y-129895400D01*
X63544931Y-129895400D01*
X63679294Y-129908633D01*
X63679294Y-129908633D01*
G37*
G36*
X66219294Y-129908633D02*
G01*
X66391695Y-129960931D01*
X66550583Y-130045858D01*
X66689849Y-130160151D01*
X66804142Y-130299417D01*
X66889069Y-130458305D01*
X66941367Y-130630706D01*
X66959025Y-130810000D01*
X66941367Y-130989294D01*
X66889069Y-131161695D01*
X66804142Y-131320583D01*
X66689849Y-131459849D01*
X66550583Y-131574142D01*
X66391695Y-131659069D01*
X66219294Y-131711367D01*
X66084931Y-131724600D01*
X65995069Y-131724600D01*
X65860706Y-131711367D01*
X65688305Y-131659069D01*
X65529417Y-131574142D01*
X65390151Y-131459849D01*
X65275858Y-131320583D01*
X65190931Y-131161695D01*
X65138633Y-130989294D01*
X65120975Y-130810000D01*
X65138633Y-130630706D01*
X65190931Y-130458305D01*
X65275858Y-130299417D01*
X65390151Y-130160151D01*
X65529417Y-130045858D01*
X65688305Y-129960931D01*
X65860706Y-129908633D01*
X65995069Y-129895400D01*
X66084931Y-129895400D01*
X66219294Y-129908633D01*
X66219294Y-129908633D01*
G37*
G36*
X84689928Y-129826764D02*
G01*
X84711009Y-129833160D01*
X84730445Y-129843548D01*
X84747476Y-129857524D01*
X84761452Y-129874555D01*
X84771840Y-129893991D01*
X84778236Y-129915072D01*
X84781000Y-129943140D01*
X84781000Y-130406860D01*
X84778236Y-130434928D01*
X84771840Y-130456009D01*
X84761452Y-130475445D01*
X84747476Y-130492476D01*
X84730445Y-130506452D01*
X84711009Y-130516840D01*
X84689928Y-130523236D01*
X84661860Y-130526000D01*
X82848140Y-130526000D01*
X82820072Y-130523236D01*
X82798991Y-130516840D01*
X82779555Y-130506452D01*
X82762524Y-130492476D01*
X82748548Y-130475445D01*
X82738160Y-130456009D01*
X82731764Y-130434928D01*
X82729000Y-130406860D01*
X82729000Y-129943140D01*
X82731764Y-129915072D01*
X82738160Y-129893991D01*
X82748548Y-129874555D01*
X82762524Y-129857524D01*
X82779555Y-129843548D01*
X82798991Y-129833160D01*
X82820072Y-129826764D01*
X82848140Y-129824000D01*
X84661860Y-129824000D01*
X84689928Y-129826764D01*
X84689928Y-129826764D01*
G37*
G36*
X79739928Y-129826764D02*
G01*
X79761009Y-129833160D01*
X79780445Y-129843548D01*
X79797476Y-129857524D01*
X79811452Y-129874555D01*
X79821840Y-129893991D01*
X79828236Y-129915072D01*
X79831000Y-129943140D01*
X79831000Y-130406860D01*
X79828236Y-130434928D01*
X79821840Y-130456009D01*
X79811452Y-130475445D01*
X79797476Y-130492476D01*
X79780445Y-130506452D01*
X79761009Y-130516840D01*
X79739928Y-130523236D01*
X79711860Y-130526000D01*
X77898140Y-130526000D01*
X77870072Y-130523236D01*
X77848991Y-130516840D01*
X77829555Y-130506452D01*
X77812524Y-130492476D01*
X77798548Y-130475445D01*
X77788160Y-130456009D01*
X77781764Y-130434928D01*
X77779000Y-130406860D01*
X77779000Y-129943140D01*
X77781764Y-129915072D01*
X77788160Y-129893991D01*
X77798548Y-129874555D01*
X77812524Y-129857524D01*
X77829555Y-129843548D01*
X77848991Y-129833160D01*
X77870072Y-129826764D01*
X77898140Y-129824000D01*
X79711860Y-129824000D01*
X79739928Y-129826764D01*
X79739928Y-129826764D01*
G37*
G36*
X79739928Y-128556764D02*
G01*
X79761009Y-128563160D01*
X79780445Y-128573548D01*
X79797476Y-128587524D01*
X79811452Y-128604555D01*
X79821840Y-128623991D01*
X79828236Y-128645072D01*
X79831000Y-128673140D01*
X79831000Y-129136860D01*
X79828236Y-129164928D01*
X79821840Y-129186009D01*
X79811452Y-129205445D01*
X79797476Y-129222476D01*
X79780445Y-129236452D01*
X79761009Y-129246840D01*
X79739928Y-129253236D01*
X79711860Y-129256000D01*
X77898140Y-129256000D01*
X77870072Y-129253236D01*
X77848991Y-129246840D01*
X77829555Y-129236452D01*
X77812524Y-129222476D01*
X77798548Y-129205445D01*
X77788160Y-129186009D01*
X77781764Y-129164928D01*
X77779000Y-129136860D01*
X77779000Y-128673140D01*
X77781764Y-128645072D01*
X77788160Y-128623991D01*
X77798548Y-128604555D01*
X77812524Y-128587524D01*
X77829555Y-128573548D01*
X77848991Y-128563160D01*
X77870072Y-128556764D01*
X77898140Y-128554000D01*
X79711860Y-128554000D01*
X79739928Y-128556764D01*
X79739928Y-128556764D01*
G37*
G36*
X84689928Y-128556764D02*
G01*
X84711009Y-128563160D01*
X84730445Y-128573548D01*
X84747476Y-128587524D01*
X84761452Y-128604555D01*
X84771840Y-128623991D01*
X84778236Y-128645072D01*
X84781000Y-128673140D01*
X84781000Y-129136860D01*
X84778236Y-129164928D01*
X84771840Y-129186009D01*
X84761452Y-129205445D01*
X84747476Y-129222476D01*
X84730445Y-129236452D01*
X84711009Y-129246840D01*
X84689928Y-129253236D01*
X84661860Y-129256000D01*
X82848140Y-129256000D01*
X82820072Y-129253236D01*
X82798991Y-129246840D01*
X82779555Y-129236452D01*
X82762524Y-129222476D01*
X82748548Y-129205445D01*
X82738160Y-129186009D01*
X82731764Y-129164928D01*
X82729000Y-129136860D01*
X82729000Y-128673140D01*
X82731764Y-128645072D01*
X82738160Y-128623991D01*
X82748548Y-128604555D01*
X82762524Y-128587524D01*
X82779555Y-128573548D01*
X82798991Y-128563160D01*
X82820072Y-128556764D01*
X82848140Y-128554000D01*
X84661860Y-128554000D01*
X84689928Y-128556764D01*
X84689928Y-128556764D01*
G37*
G36*
X63679294Y-127368633D02*
G01*
X63851695Y-127420931D01*
X64010583Y-127505858D01*
X64149849Y-127620151D01*
X64264142Y-127759417D01*
X64349069Y-127918305D01*
X64401367Y-128090706D01*
X64419025Y-128270000D01*
X64401367Y-128449294D01*
X64349069Y-128621695D01*
X64264142Y-128780583D01*
X64149849Y-128919849D01*
X64010583Y-129034142D01*
X63851695Y-129119069D01*
X63679294Y-129171367D01*
X63544931Y-129184600D01*
X63455069Y-129184600D01*
X63320706Y-129171367D01*
X63148305Y-129119069D01*
X62989417Y-129034142D01*
X62850151Y-128919849D01*
X62735858Y-128780583D01*
X62650931Y-128621695D01*
X62598633Y-128449294D01*
X62580975Y-128270000D01*
X62598633Y-128090706D01*
X62650931Y-127918305D01*
X62735858Y-127759417D01*
X62850151Y-127620151D01*
X62989417Y-127505858D01*
X63148305Y-127420931D01*
X63320706Y-127368633D01*
X63455069Y-127355400D01*
X63544931Y-127355400D01*
X63679294Y-127368633D01*
X63679294Y-127368633D01*
G37*
G36*
X66219294Y-127368633D02*
G01*
X66391695Y-127420931D01*
X66550583Y-127505858D01*
X66689849Y-127620151D01*
X66804142Y-127759417D01*
X66889069Y-127918305D01*
X66941367Y-128090706D01*
X66959025Y-128270000D01*
X66941367Y-128449294D01*
X66889069Y-128621695D01*
X66804142Y-128780583D01*
X66689849Y-128919849D01*
X66550583Y-129034142D01*
X66391695Y-129119069D01*
X66219294Y-129171367D01*
X66084931Y-129184600D01*
X65995069Y-129184600D01*
X65860706Y-129171367D01*
X65688305Y-129119069D01*
X65529417Y-129034142D01*
X65390151Y-128919849D01*
X65275858Y-128780583D01*
X65190931Y-128621695D01*
X65138633Y-128449294D01*
X65120975Y-128270000D01*
X65138633Y-128090706D01*
X65190931Y-127918305D01*
X65275858Y-127759417D01*
X65390151Y-127620151D01*
X65529417Y-127505858D01*
X65688305Y-127420931D01*
X65860706Y-127368633D01*
X65995069Y-127355400D01*
X66084931Y-127355400D01*
X66219294Y-127368633D01*
X66219294Y-127368633D01*
G37*
G36*
X79739928Y-127286764D02*
G01*
X79761009Y-127293160D01*
X79780445Y-127303548D01*
X79797476Y-127317524D01*
X79811452Y-127334555D01*
X79821840Y-127353991D01*
X79828236Y-127375072D01*
X79831000Y-127403140D01*
X79831000Y-127866860D01*
X79828236Y-127894928D01*
X79821840Y-127916009D01*
X79811452Y-127935445D01*
X79797476Y-127952476D01*
X79780445Y-127966452D01*
X79761009Y-127976840D01*
X79739928Y-127983236D01*
X79711860Y-127986000D01*
X77898140Y-127986000D01*
X77870072Y-127983236D01*
X77848991Y-127976840D01*
X77829555Y-127966452D01*
X77812524Y-127952476D01*
X77798548Y-127935445D01*
X77788160Y-127916009D01*
X77781764Y-127894928D01*
X77779000Y-127866860D01*
X77779000Y-127403140D01*
X77781764Y-127375072D01*
X77788160Y-127353991D01*
X77798548Y-127334555D01*
X77812524Y-127317524D01*
X77829555Y-127303548D01*
X77848991Y-127293160D01*
X77870072Y-127286764D01*
X77898140Y-127284000D01*
X79711860Y-127284000D01*
X79739928Y-127286764D01*
X79739928Y-127286764D01*
G37*
G36*
X84689928Y-127286764D02*
G01*
X84711009Y-127293160D01*
X84730445Y-127303548D01*
X84747476Y-127317524D01*
X84761452Y-127334555D01*
X84771840Y-127353991D01*
X84778236Y-127375072D01*
X84781000Y-127403140D01*
X84781000Y-127866860D01*
X84778236Y-127894928D01*
X84771840Y-127916009D01*
X84761452Y-127935445D01*
X84747476Y-127952476D01*
X84730445Y-127966452D01*
X84711009Y-127976840D01*
X84689928Y-127983236D01*
X84661860Y-127986000D01*
X82848140Y-127986000D01*
X82820072Y-127983236D01*
X82798991Y-127976840D01*
X82779555Y-127966452D01*
X82762524Y-127952476D01*
X82748548Y-127935445D01*
X82738160Y-127916009D01*
X82731764Y-127894928D01*
X82729000Y-127866860D01*
X82729000Y-127403140D01*
X82731764Y-127375072D01*
X82738160Y-127353991D01*
X82748548Y-127334555D01*
X82762524Y-127317524D01*
X82779555Y-127303548D01*
X82798991Y-127293160D01*
X82820072Y-127286764D01*
X82848140Y-127284000D01*
X84661860Y-127284000D01*
X84689928Y-127286764D01*
X84689928Y-127286764D01*
G37*
G36*
X84689928Y-126016764D02*
G01*
X84711009Y-126023160D01*
X84730445Y-126033548D01*
X84747476Y-126047524D01*
X84761452Y-126064555D01*
X84771840Y-126083991D01*
X84778236Y-126105072D01*
X84781000Y-126133140D01*
X84781000Y-126596860D01*
X84778236Y-126624928D01*
X84771840Y-126646009D01*
X84761452Y-126665445D01*
X84747476Y-126682476D01*
X84730445Y-126696452D01*
X84711009Y-126706840D01*
X84689928Y-126713236D01*
X84661860Y-126716000D01*
X82848140Y-126716000D01*
X82820072Y-126713236D01*
X82798991Y-126706840D01*
X82779555Y-126696452D01*
X82762524Y-126682476D01*
X82748548Y-126665445D01*
X82738160Y-126646009D01*
X82731764Y-126624928D01*
X82729000Y-126596860D01*
X82729000Y-126133140D01*
X82731764Y-126105072D01*
X82738160Y-126083991D01*
X82748548Y-126064555D01*
X82762524Y-126047524D01*
X82779555Y-126033548D01*
X82798991Y-126023160D01*
X82820072Y-126016764D01*
X82848140Y-126014000D01*
X84661860Y-126014000D01*
X84689928Y-126016764D01*
X84689928Y-126016764D01*
G37*
G36*
X79739928Y-126016764D02*
G01*
X79761009Y-126023160D01*
X79780445Y-126033548D01*
X79797476Y-126047524D01*
X79811452Y-126064555D01*
X79821840Y-126083991D01*
X79828236Y-126105072D01*
X79831000Y-126133140D01*
X79831000Y-126596860D01*
X79828236Y-126624928D01*
X79821840Y-126646009D01*
X79811452Y-126665445D01*
X79797476Y-126682476D01*
X79780445Y-126696452D01*
X79761009Y-126706840D01*
X79739928Y-126713236D01*
X79711860Y-126716000D01*
X77898140Y-126716000D01*
X77870072Y-126713236D01*
X77848991Y-126706840D01*
X77829555Y-126696452D01*
X77812524Y-126682476D01*
X77798548Y-126665445D01*
X77788160Y-126646009D01*
X77781764Y-126624928D01*
X77779000Y-126596860D01*
X77779000Y-126133140D01*
X77781764Y-126105072D01*
X77788160Y-126083991D01*
X77798548Y-126064555D01*
X77812524Y-126047524D01*
X77829555Y-126033548D01*
X77848991Y-126023160D01*
X77870072Y-126016764D01*
X77898140Y-126014000D01*
X79711860Y-126014000D01*
X79739928Y-126016764D01*
X79739928Y-126016764D01*
G37*
G36*
X66219294Y-124828633D02*
G01*
X66391695Y-124880931D01*
X66550583Y-124965858D01*
X66689849Y-125080151D01*
X66804142Y-125219417D01*
X66889069Y-125378305D01*
X66941367Y-125550706D01*
X66959025Y-125730000D01*
X66941367Y-125909294D01*
X66889069Y-126081695D01*
X66804142Y-126240583D01*
X66689849Y-126379849D01*
X66550583Y-126494142D01*
X66391695Y-126579069D01*
X66219294Y-126631367D01*
X66084931Y-126644600D01*
X65995069Y-126644600D01*
X65860706Y-126631367D01*
X65688305Y-126579069D01*
X65529417Y-126494142D01*
X65390151Y-126379849D01*
X65275858Y-126240583D01*
X65190931Y-126081695D01*
X65138633Y-125909294D01*
X65120975Y-125730000D01*
X65138633Y-125550706D01*
X65190931Y-125378305D01*
X65275858Y-125219417D01*
X65390151Y-125080151D01*
X65529417Y-124965858D01*
X65688305Y-124880931D01*
X65860706Y-124828633D01*
X65995069Y-124815400D01*
X66084931Y-124815400D01*
X66219294Y-124828633D01*
X66219294Y-124828633D01*
G37*
G36*
X63679294Y-124828633D02*
G01*
X63851695Y-124880931D01*
X64010583Y-124965858D01*
X64149849Y-125080151D01*
X64264142Y-125219417D01*
X64349069Y-125378305D01*
X64401367Y-125550706D01*
X64419025Y-125730000D01*
X64401367Y-125909294D01*
X64349069Y-126081695D01*
X64264142Y-126240583D01*
X64149849Y-126379849D01*
X64010583Y-126494142D01*
X63851695Y-126579069D01*
X63679294Y-126631367D01*
X63544931Y-126644600D01*
X63455069Y-126644600D01*
X63320706Y-126631367D01*
X63148305Y-126579069D01*
X62989417Y-126494142D01*
X62850151Y-126379849D01*
X62735858Y-126240583D01*
X62650931Y-126081695D01*
X62598633Y-125909294D01*
X62580975Y-125730000D01*
X62598633Y-125550706D01*
X62650931Y-125378305D01*
X62735858Y-125219417D01*
X62850151Y-125080151D01*
X62989417Y-124965858D01*
X63148305Y-124880931D01*
X63320706Y-124828633D01*
X63455069Y-124815400D01*
X63544931Y-124815400D01*
X63679294Y-124828633D01*
X63679294Y-124828633D01*
G37*
G36*
X79739928Y-124746764D02*
G01*
X79761009Y-124753160D01*
X79780445Y-124763548D01*
X79797476Y-124777524D01*
X79811452Y-124794555D01*
X79821840Y-124813991D01*
X79828236Y-124835072D01*
X79831000Y-124863140D01*
X79831000Y-125326860D01*
X79828236Y-125354928D01*
X79821840Y-125376009D01*
X79811452Y-125395445D01*
X79797476Y-125412476D01*
X79780445Y-125426452D01*
X79761009Y-125436840D01*
X79739928Y-125443236D01*
X79711860Y-125446000D01*
X77898140Y-125446000D01*
X77870072Y-125443236D01*
X77848991Y-125436840D01*
X77829555Y-125426452D01*
X77812524Y-125412476D01*
X77798548Y-125395445D01*
X77788160Y-125376009D01*
X77781764Y-125354928D01*
X77779000Y-125326860D01*
X77779000Y-124863140D01*
X77781764Y-124835072D01*
X77788160Y-124813991D01*
X77798548Y-124794555D01*
X77812524Y-124777524D01*
X77829555Y-124763548D01*
X77848991Y-124753160D01*
X77870072Y-124746764D01*
X77898140Y-124744000D01*
X79711860Y-124744000D01*
X79739928Y-124746764D01*
X79739928Y-124746764D01*
G37*
G36*
X84689928Y-124746764D02*
G01*
X84711009Y-124753160D01*
X84730445Y-124763548D01*
X84747476Y-124777524D01*
X84761452Y-124794555D01*
X84771840Y-124813991D01*
X84778236Y-124835072D01*
X84781000Y-124863140D01*
X84781000Y-125326860D01*
X84778236Y-125354928D01*
X84771840Y-125376009D01*
X84761452Y-125395445D01*
X84747476Y-125412476D01*
X84730445Y-125426452D01*
X84711009Y-125436840D01*
X84689928Y-125443236D01*
X84661860Y-125446000D01*
X82848140Y-125446000D01*
X82820072Y-125443236D01*
X82798991Y-125436840D01*
X82779555Y-125426452D01*
X82762524Y-125412476D01*
X82748548Y-125395445D01*
X82738160Y-125376009D01*
X82731764Y-125354928D01*
X82729000Y-125326860D01*
X82729000Y-124863140D01*
X82731764Y-124835072D01*
X82738160Y-124813991D01*
X82748548Y-124794555D01*
X82762524Y-124777524D01*
X82779555Y-124763548D01*
X82798991Y-124753160D01*
X82820072Y-124746764D01*
X82848140Y-124744000D01*
X84661860Y-124744000D01*
X84689928Y-124746764D01*
X84689928Y-124746764D01*
G37*
G36*
X63679294Y-122288633D02*
G01*
X63851695Y-122340931D01*
X64010583Y-122425858D01*
X64149849Y-122540151D01*
X64264142Y-122679417D01*
X64349069Y-122838305D01*
X64401367Y-123010706D01*
X64419025Y-123190000D01*
X64401367Y-123369294D01*
X64349069Y-123541695D01*
X64264142Y-123700583D01*
X64149849Y-123839849D01*
X64010583Y-123954142D01*
X63851695Y-124039069D01*
X63679294Y-124091367D01*
X63544931Y-124104600D01*
X63455069Y-124104600D01*
X63320706Y-124091367D01*
X63148305Y-124039069D01*
X62989417Y-123954142D01*
X62850151Y-123839849D01*
X62735858Y-123700583D01*
X62650931Y-123541695D01*
X62598633Y-123369294D01*
X62580975Y-123190000D01*
X62598633Y-123010706D01*
X62650931Y-122838305D01*
X62735858Y-122679417D01*
X62850151Y-122540151D01*
X62989417Y-122425858D01*
X63148305Y-122340931D01*
X63320706Y-122288633D01*
X63455069Y-122275400D01*
X63544931Y-122275400D01*
X63679294Y-122288633D01*
X63679294Y-122288633D01*
G37*
G36*
X66219294Y-122288633D02*
G01*
X66391695Y-122340931D01*
X66550583Y-122425858D01*
X66689849Y-122540151D01*
X66804142Y-122679417D01*
X66889069Y-122838305D01*
X66941367Y-123010706D01*
X66959025Y-123190000D01*
X66941367Y-123369294D01*
X66889069Y-123541695D01*
X66804142Y-123700583D01*
X66689849Y-123839849D01*
X66550583Y-123954142D01*
X66391695Y-124039069D01*
X66219294Y-124091367D01*
X66084931Y-124104600D01*
X65995069Y-124104600D01*
X65860706Y-124091367D01*
X65688305Y-124039069D01*
X65529417Y-123954142D01*
X65390151Y-123839849D01*
X65275858Y-123700583D01*
X65190931Y-123541695D01*
X65138633Y-123369294D01*
X65120975Y-123190000D01*
X65138633Y-123010706D01*
X65190931Y-122838305D01*
X65275858Y-122679417D01*
X65390151Y-122540151D01*
X65529417Y-122425858D01*
X65688305Y-122340931D01*
X65860706Y-122288633D01*
X65995069Y-122275400D01*
X66084931Y-122275400D01*
X66219294Y-122288633D01*
X66219294Y-122288633D01*
G37*
G36*
X135169271Y-121020103D02*
G01*
X135225635Y-121025654D01*
X135442600Y-121091470D01*
X135442602Y-121091471D01*
X135642555Y-121198347D01*
X135817818Y-121342182D01*
X135961653Y-121517445D01*
X136068529Y-121717398D01*
X136068530Y-121717400D01*
X136134346Y-121934365D01*
X136156569Y-122160000D01*
X136134346Y-122385635D01*
X136087474Y-122540151D01*
X136068529Y-122602602D01*
X135961653Y-122802555D01*
X135817818Y-122977818D01*
X135642555Y-123121653D01*
X135514685Y-123190000D01*
X135442600Y-123228530D01*
X135225635Y-123294346D01*
X135169271Y-123299897D01*
X135056545Y-123311000D01*
X134943455Y-123311000D01*
X134830729Y-123299897D01*
X134774365Y-123294346D01*
X134557400Y-123228530D01*
X134485315Y-123190000D01*
X134357445Y-123121653D01*
X134182182Y-122977818D01*
X134038347Y-122802555D01*
X133931471Y-122602602D01*
X133912527Y-122540151D01*
X133865654Y-122385635D01*
X133843431Y-122160000D01*
X133865654Y-121934365D01*
X133931470Y-121717400D01*
X133931471Y-121717398D01*
X134038347Y-121517445D01*
X134182182Y-121342182D01*
X134357445Y-121198347D01*
X134557398Y-121091471D01*
X134557400Y-121091470D01*
X134774365Y-121025654D01*
X134830729Y-121020103D01*
X134943455Y-121009000D01*
X135056545Y-121009000D01*
X135169271Y-121020103D01*
X135169271Y-121020103D01*
G37*
G36*
X82588062Y-121078181D02*
G01*
X82622981Y-121088774D01*
X82655163Y-121105976D01*
X82683373Y-121129127D01*
X82706524Y-121157337D01*
X82723726Y-121189519D01*
X82734319Y-121224438D01*
X82738500Y-121266895D01*
X82738500Y-122733105D01*
X82734319Y-122775562D01*
X82723726Y-122810481D01*
X82706524Y-122842663D01*
X82683373Y-122870873D01*
X82655163Y-122894024D01*
X82622981Y-122911226D01*
X82588062Y-122921819D01*
X82545605Y-122926000D01*
X81404395Y-122926000D01*
X81361938Y-122921819D01*
X81327019Y-122911226D01*
X81294837Y-122894024D01*
X81266627Y-122870873D01*
X81243476Y-122842663D01*
X81226274Y-122810481D01*
X81215681Y-122775562D01*
X81211500Y-122733105D01*
X81211500Y-121266895D01*
X81215681Y-121224438D01*
X81226274Y-121189519D01*
X81243476Y-121157337D01*
X81266627Y-121129127D01*
X81294837Y-121105976D01*
X81327019Y-121088774D01*
X81361938Y-121078181D01*
X81404395Y-121074000D01*
X82545605Y-121074000D01*
X82588062Y-121078181D01*
X82588062Y-121078181D01*
G37*
G36*
X79613062Y-121078181D02*
G01*
X79647981Y-121088774D01*
X79680163Y-121105976D01*
X79708373Y-121129127D01*
X79731524Y-121157337D01*
X79748726Y-121189519D01*
X79759319Y-121224438D01*
X79763500Y-121266895D01*
X79763500Y-122733105D01*
X79759319Y-122775562D01*
X79748726Y-122810481D01*
X79731524Y-122842663D01*
X79708373Y-122870873D01*
X79680163Y-122894024D01*
X79647981Y-122911226D01*
X79613062Y-122921819D01*
X79570605Y-122926000D01*
X78429395Y-122926000D01*
X78386938Y-122921819D01*
X78352019Y-122911226D01*
X78319837Y-122894024D01*
X78291627Y-122870873D01*
X78268476Y-122842663D01*
X78251274Y-122810481D01*
X78240681Y-122775562D01*
X78236500Y-122733105D01*
X78236500Y-121266895D01*
X78240681Y-121224438D01*
X78251274Y-121189519D01*
X78268476Y-121157337D01*
X78291627Y-121129127D01*
X78319837Y-121105976D01*
X78352019Y-121088774D01*
X78386938Y-121078181D01*
X78429395Y-121074000D01*
X79570605Y-121074000D01*
X79613062Y-121078181D01*
X79613062Y-121078181D01*
G37*
G36*
X63679294Y-119748633D02*
G01*
X63851695Y-119800931D01*
X64010583Y-119885858D01*
X64149849Y-120000151D01*
X64264142Y-120139417D01*
X64349069Y-120298305D01*
X64401367Y-120470706D01*
X64419025Y-120650000D01*
X64401367Y-120829294D01*
X64349069Y-121001695D01*
X64264142Y-121160583D01*
X64149849Y-121299849D01*
X64010583Y-121414142D01*
X63851695Y-121499069D01*
X63679294Y-121551367D01*
X63544931Y-121564600D01*
X63455069Y-121564600D01*
X63320706Y-121551367D01*
X63148305Y-121499069D01*
X62989417Y-121414142D01*
X62850151Y-121299849D01*
X62735858Y-121160583D01*
X62650931Y-121001695D01*
X62598633Y-120829294D01*
X62580975Y-120650000D01*
X62598633Y-120470706D01*
X62650931Y-120298305D01*
X62735858Y-120139417D01*
X62850151Y-120000151D01*
X62989417Y-119885858D01*
X63148305Y-119800931D01*
X63320706Y-119748633D01*
X63455069Y-119735400D01*
X63544931Y-119735400D01*
X63679294Y-119748633D01*
X63679294Y-119748633D01*
G37*
G36*
X66954600Y-121564600D02*
G01*
X65125400Y-121564600D01*
X65125400Y-119735400D01*
X66954600Y-119735400D01*
X66954600Y-121564600D01*
X66954600Y-121564600D01*
G37*
G36*
X68690442Y-119755518D02*
G01*
X68756627Y-119762037D01*
X68926466Y-119813557D01*
X69082991Y-119897222D01*
X69118729Y-119926552D01*
X69220186Y-120009814D01*
X69303448Y-120111271D01*
X69332778Y-120147009D01*
X69332779Y-120147011D01*
X69413648Y-120298304D01*
X69416443Y-120303534D01*
X69467963Y-120473373D01*
X69485359Y-120650000D01*
X69467963Y-120826627D01*
X69416443Y-120996466D01*
X69416442Y-120996468D01*
X69409743Y-121009000D01*
X69332778Y-121152991D01*
X69329211Y-121157337D01*
X69220186Y-121290186D01*
X69118729Y-121373448D01*
X69082991Y-121402778D01*
X68926466Y-121486443D01*
X68756627Y-121537963D01*
X68690443Y-121544481D01*
X68624260Y-121551000D01*
X68535740Y-121551000D01*
X68469557Y-121544481D01*
X68403373Y-121537963D01*
X68233534Y-121486443D01*
X68077009Y-121402778D01*
X68041271Y-121373448D01*
X67939814Y-121290186D01*
X67830789Y-121157337D01*
X67827222Y-121152991D01*
X67750257Y-121009000D01*
X67743558Y-120996468D01*
X67743557Y-120996466D01*
X67692037Y-120826627D01*
X67674641Y-120650000D01*
X67692037Y-120473373D01*
X67743557Y-120303534D01*
X67746353Y-120298304D01*
X67827221Y-120147011D01*
X67827222Y-120147009D01*
X67856552Y-120111271D01*
X67939814Y-120009814D01*
X68041271Y-119926552D01*
X68077009Y-119897222D01*
X68233534Y-119813557D01*
X68403373Y-119762037D01*
X68469558Y-119755518D01*
X68535740Y-119749000D01*
X68624260Y-119749000D01*
X68690442Y-119755518D01*
X68690442Y-119755518D01*
G37*
G36*
X68690443Y-117215519D02*
G01*
X68756627Y-117222037D01*
X68926466Y-117273557D01*
X69082991Y-117357222D01*
X69118729Y-117386552D01*
X69220186Y-117469814D01*
X69303448Y-117571271D01*
X69332778Y-117607009D01*
X69416443Y-117763534D01*
X69467963Y-117933373D01*
X69485359Y-118110000D01*
X69467963Y-118286627D01*
X69416443Y-118456466D01*
X69332778Y-118612991D01*
X69303448Y-118648729D01*
X69220186Y-118750186D01*
X69118729Y-118833448D01*
X69082991Y-118862778D01*
X68926466Y-118946443D01*
X68756627Y-118997963D01*
X68690443Y-119004481D01*
X68624260Y-119011000D01*
X68535740Y-119011000D01*
X68469557Y-119004481D01*
X68403373Y-118997963D01*
X68233534Y-118946443D01*
X68077009Y-118862778D01*
X68041271Y-118833448D01*
X67939814Y-118750186D01*
X67856552Y-118648729D01*
X67827222Y-118612991D01*
X67743557Y-118456466D01*
X67692037Y-118286627D01*
X67674641Y-118110000D01*
X67692037Y-117933373D01*
X67743557Y-117763534D01*
X67827222Y-117607009D01*
X67856552Y-117571271D01*
X67939814Y-117469814D01*
X68041271Y-117386552D01*
X68077009Y-117357222D01*
X68233534Y-117273557D01*
X68403373Y-117222037D01*
X68469557Y-117215519D01*
X68535740Y-117209000D01*
X68624260Y-117209000D01*
X68690443Y-117215519D01*
X68690443Y-117215519D01*
G37*
G36*
X68690443Y-114675519D02*
G01*
X68756627Y-114682037D01*
X68926466Y-114733557D01*
X69082991Y-114817222D01*
X69118729Y-114846552D01*
X69220186Y-114929814D01*
X69303448Y-115031271D01*
X69332778Y-115067009D01*
X69416443Y-115223534D01*
X69467963Y-115393373D01*
X69485359Y-115570000D01*
X69467963Y-115746627D01*
X69416443Y-115916466D01*
X69332778Y-116072991D01*
X69303448Y-116108729D01*
X69220186Y-116210186D01*
X69118729Y-116293448D01*
X69082991Y-116322778D01*
X68926466Y-116406443D01*
X68756627Y-116457963D01*
X68690442Y-116464482D01*
X68624260Y-116471000D01*
X68535740Y-116471000D01*
X68469558Y-116464482D01*
X68403373Y-116457963D01*
X68233534Y-116406443D01*
X68077009Y-116322778D01*
X68041271Y-116293448D01*
X67939814Y-116210186D01*
X67856552Y-116108729D01*
X67827222Y-116072991D01*
X67743557Y-115916466D01*
X67692037Y-115746627D01*
X67674641Y-115570000D01*
X67692037Y-115393373D01*
X67743557Y-115223534D01*
X67827222Y-115067009D01*
X67856552Y-115031271D01*
X67939814Y-114929814D01*
X68041271Y-114846552D01*
X68077009Y-114817222D01*
X68233534Y-114733557D01*
X68403373Y-114682037D01*
X68469557Y-114675519D01*
X68535740Y-114669000D01*
X68624260Y-114669000D01*
X68690443Y-114675519D01*
X68690443Y-114675519D01*
G37*
G36*
X83930443Y-112135519D02*
G01*
X83996627Y-112142037D01*
X84166466Y-112193557D01*
X84322991Y-112277222D01*
X84358729Y-112306552D01*
X84460186Y-112389814D01*
X84543448Y-112491271D01*
X84572778Y-112527009D01*
X84656443Y-112683534D01*
X84707963Y-112853373D01*
X84725359Y-113030000D01*
X84707963Y-113206627D01*
X84656443Y-113376466D01*
X84572778Y-113532991D01*
X84543448Y-113568729D01*
X84460186Y-113670186D01*
X84358729Y-113753448D01*
X84322991Y-113782778D01*
X84166466Y-113866443D01*
X83996627Y-113917963D01*
X83930443Y-113924481D01*
X83864260Y-113931000D01*
X83775740Y-113931000D01*
X83709557Y-113924481D01*
X83643373Y-113917963D01*
X83473534Y-113866443D01*
X83317009Y-113782778D01*
X83281271Y-113753448D01*
X83179814Y-113670186D01*
X83096552Y-113568729D01*
X83067222Y-113532991D01*
X82983557Y-113376466D01*
X82932037Y-113206627D01*
X82914641Y-113030000D01*
X82932037Y-112853373D01*
X82983557Y-112683534D01*
X83067222Y-112527009D01*
X83096552Y-112491271D01*
X83179814Y-112389814D01*
X83281271Y-112306552D01*
X83317009Y-112277222D01*
X83473534Y-112193557D01*
X83643373Y-112142037D01*
X83709557Y-112135519D01*
X83775740Y-112129000D01*
X83864260Y-112129000D01*
X83930443Y-112135519D01*
X83930443Y-112135519D01*
G37*
G36*
X68690443Y-112135519D02*
G01*
X68756627Y-112142037D01*
X68926466Y-112193557D01*
X69082991Y-112277222D01*
X69118729Y-112306552D01*
X69220186Y-112389814D01*
X69303448Y-112491271D01*
X69332778Y-112527009D01*
X69416443Y-112683534D01*
X69467963Y-112853373D01*
X69485359Y-113030000D01*
X69467963Y-113206627D01*
X69416443Y-113376466D01*
X69332778Y-113532991D01*
X69303448Y-113568729D01*
X69220186Y-113670186D01*
X69118729Y-113753448D01*
X69082991Y-113782778D01*
X68926466Y-113866443D01*
X68756627Y-113917963D01*
X68690443Y-113924481D01*
X68624260Y-113931000D01*
X68535740Y-113931000D01*
X68469557Y-113924481D01*
X68403373Y-113917963D01*
X68233534Y-113866443D01*
X68077009Y-113782778D01*
X68041271Y-113753448D01*
X67939814Y-113670186D01*
X67856552Y-113568729D01*
X67827222Y-113532991D01*
X67743557Y-113376466D01*
X67692037Y-113206627D01*
X67674641Y-113030000D01*
X67692037Y-112853373D01*
X67743557Y-112683534D01*
X67827222Y-112527009D01*
X67856552Y-112491271D01*
X67939814Y-112389814D01*
X68041271Y-112306552D01*
X68077009Y-112277222D01*
X68233534Y-112193557D01*
X68403373Y-112142037D01*
X68469557Y-112135519D01*
X68535740Y-112129000D01*
X68624260Y-112129000D01*
X68690443Y-112135519D01*
X68690443Y-112135519D01*
G37*
G36*
X136151000Y-113151000D02*
G01*
X133849000Y-113151000D01*
X133849000Y-110849000D01*
X136151000Y-110849000D01*
X136151000Y-113151000D01*
X136151000Y-113151000D01*
G37*
G36*
X138540443Y-111105519D02*
G01*
X138606627Y-111112037D01*
X138776466Y-111163557D01*
X138932991Y-111247222D01*
X138968729Y-111276552D01*
X139070186Y-111359814D01*
X139153448Y-111461271D01*
X139182778Y-111497009D01*
X139266443Y-111653534D01*
X139317963Y-111823373D01*
X139335359Y-112000000D01*
X139317963Y-112176627D01*
X139266443Y-112346466D01*
X139182778Y-112502991D01*
X139163067Y-112527009D01*
X139070186Y-112640186D01*
X138968729Y-112723448D01*
X138932991Y-112752778D01*
X138776466Y-112836443D01*
X138606627Y-112887963D01*
X138540443Y-112894481D01*
X138474260Y-112901000D01*
X138385740Y-112901000D01*
X138319557Y-112894481D01*
X138253373Y-112887963D01*
X138083534Y-112836443D01*
X137927009Y-112752778D01*
X137891271Y-112723448D01*
X137789814Y-112640186D01*
X137696933Y-112527009D01*
X137677222Y-112502991D01*
X137593557Y-112346466D01*
X137542037Y-112176627D01*
X137524641Y-112000000D01*
X137542037Y-111823373D01*
X137593557Y-111653534D01*
X137677222Y-111497009D01*
X137706552Y-111461271D01*
X137789814Y-111359814D01*
X137891271Y-111276552D01*
X137927009Y-111247222D01*
X138083534Y-111163557D01*
X138253373Y-111112037D01*
X138319557Y-111105519D01*
X138385740Y-111099000D01*
X138474260Y-111099000D01*
X138540443Y-111105519D01*
X138540443Y-111105519D01*
G37*
G36*
X141871000Y-112901000D02*
G01*
X140069000Y-112901000D01*
X140069000Y-111099000D01*
X141871000Y-111099000D01*
X141871000Y-112901000D01*
X141871000Y-112901000D01*
G37*
G36*
X68690442Y-109595518D02*
G01*
X68756627Y-109602037D01*
X68926466Y-109653557D01*
X69082991Y-109737222D01*
X69118729Y-109766552D01*
X69220186Y-109849814D01*
X69303448Y-109951271D01*
X69332778Y-109987009D01*
X69416443Y-110143534D01*
X69467963Y-110313373D01*
X69485359Y-110490000D01*
X69467963Y-110666627D01*
X69416443Y-110836466D01*
X69332778Y-110992991D01*
X69303448Y-111028729D01*
X69220186Y-111130186D01*
X69118729Y-111213448D01*
X69082991Y-111242778D01*
X68926466Y-111326443D01*
X68756627Y-111377963D01*
X68690443Y-111384481D01*
X68624260Y-111391000D01*
X68535740Y-111391000D01*
X68469557Y-111384481D01*
X68403373Y-111377963D01*
X68233534Y-111326443D01*
X68077009Y-111242778D01*
X68041271Y-111213448D01*
X67939814Y-111130186D01*
X67856552Y-111028729D01*
X67827222Y-110992991D01*
X67743557Y-110836466D01*
X67692037Y-110666627D01*
X67674641Y-110490000D01*
X67692037Y-110313373D01*
X67743557Y-110143534D01*
X67827222Y-109987009D01*
X67856552Y-109951271D01*
X67939814Y-109849814D01*
X68041271Y-109766552D01*
X68077009Y-109737222D01*
X68233534Y-109653557D01*
X68403373Y-109602037D01*
X68469558Y-109595518D01*
X68535740Y-109589000D01*
X68624260Y-109589000D01*
X68690442Y-109595518D01*
X68690442Y-109595518D01*
G37*
G36*
X64880442Y-109595518D02*
G01*
X64946627Y-109602037D01*
X65116466Y-109653557D01*
X65272991Y-109737222D01*
X65308729Y-109766552D01*
X65410186Y-109849814D01*
X65493448Y-109951271D01*
X65522778Y-109987009D01*
X65606443Y-110143534D01*
X65657963Y-110313373D01*
X65675359Y-110490000D01*
X65657963Y-110666627D01*
X65606443Y-110836466D01*
X65522778Y-110992991D01*
X65493448Y-111028729D01*
X65410186Y-111130186D01*
X65308729Y-111213448D01*
X65272991Y-111242778D01*
X65116466Y-111326443D01*
X64946627Y-111377963D01*
X64880443Y-111384481D01*
X64814260Y-111391000D01*
X64725740Y-111391000D01*
X64659557Y-111384481D01*
X64593373Y-111377963D01*
X64423534Y-111326443D01*
X64267009Y-111242778D01*
X64231271Y-111213448D01*
X64129814Y-111130186D01*
X64046552Y-111028729D01*
X64017222Y-110992991D01*
X63933557Y-110836466D01*
X63882037Y-110666627D01*
X63864641Y-110490000D01*
X63882037Y-110313373D01*
X63933557Y-110143534D01*
X64017222Y-109987009D01*
X64046552Y-109951271D01*
X64129814Y-109849814D01*
X64231271Y-109766552D01*
X64267009Y-109737222D01*
X64423534Y-109653557D01*
X64593373Y-109602037D01*
X64659558Y-109595518D01*
X64725740Y-109589000D01*
X64814260Y-109589000D01*
X64880442Y-109595518D01*
X64880442Y-109595518D01*
G37*
G36*
X83930442Y-109595518D02*
G01*
X83996627Y-109602037D01*
X84166466Y-109653557D01*
X84322991Y-109737222D01*
X84358729Y-109766552D01*
X84460186Y-109849814D01*
X84543448Y-109951271D01*
X84572778Y-109987009D01*
X84656443Y-110143534D01*
X84707963Y-110313373D01*
X84725359Y-110490000D01*
X84707963Y-110666627D01*
X84656443Y-110836466D01*
X84572778Y-110992991D01*
X84543448Y-111028729D01*
X84460186Y-111130186D01*
X84358729Y-111213448D01*
X84322991Y-111242778D01*
X84166466Y-111326443D01*
X83996627Y-111377963D01*
X83930443Y-111384481D01*
X83864260Y-111391000D01*
X83775740Y-111391000D01*
X83709557Y-111384481D01*
X83643373Y-111377963D01*
X83473534Y-111326443D01*
X83317009Y-111242778D01*
X83281271Y-111213448D01*
X83179814Y-111130186D01*
X83096552Y-111028729D01*
X83067222Y-110992991D01*
X82983557Y-110836466D01*
X82932037Y-110666627D01*
X82914641Y-110490000D01*
X82932037Y-110313373D01*
X82983557Y-110143534D01*
X83067222Y-109987009D01*
X83096552Y-109951271D01*
X83179814Y-109849814D01*
X83281271Y-109766552D01*
X83317009Y-109737222D01*
X83473534Y-109653557D01*
X83643373Y-109602037D01*
X83709558Y-109595518D01*
X83775740Y-109589000D01*
X83864260Y-109589000D01*
X83930442Y-109595518D01*
X83930442Y-109595518D01*
G37*
G36*
X83930442Y-107055518D02*
G01*
X83996627Y-107062037D01*
X84166466Y-107113557D01*
X84322991Y-107197222D01*
X84358729Y-107226552D01*
X84460186Y-107309814D01*
X84543448Y-107411271D01*
X84572778Y-107447009D01*
X84656443Y-107603534D01*
X84707963Y-107773373D01*
X84725359Y-107950000D01*
X84707963Y-108126627D01*
X84656443Y-108296466D01*
X84572778Y-108452991D01*
X84543448Y-108488729D01*
X84460186Y-108590186D01*
X84358729Y-108673448D01*
X84322991Y-108702778D01*
X84166466Y-108786443D01*
X83996627Y-108837963D01*
X83930442Y-108844482D01*
X83864260Y-108851000D01*
X83775740Y-108851000D01*
X83709558Y-108844482D01*
X83643373Y-108837963D01*
X83473534Y-108786443D01*
X83317009Y-108702778D01*
X83281271Y-108673448D01*
X83179814Y-108590186D01*
X83096552Y-108488729D01*
X83067222Y-108452991D01*
X82983557Y-108296466D01*
X82932037Y-108126627D01*
X82914641Y-107950000D01*
X82932037Y-107773373D01*
X82983557Y-107603534D01*
X83067222Y-107447009D01*
X83096552Y-107411271D01*
X83179814Y-107309814D01*
X83281271Y-107226552D01*
X83317009Y-107197222D01*
X83473534Y-107113557D01*
X83643373Y-107062037D01*
X83709558Y-107055518D01*
X83775740Y-107049000D01*
X83864260Y-107049000D01*
X83930442Y-107055518D01*
X83930442Y-107055518D01*
G37*
G36*
X68690442Y-107055518D02*
G01*
X68756627Y-107062037D01*
X68926466Y-107113557D01*
X69082991Y-107197222D01*
X69118729Y-107226552D01*
X69220186Y-107309814D01*
X69303448Y-107411271D01*
X69332778Y-107447009D01*
X69416443Y-107603534D01*
X69467963Y-107773373D01*
X69485359Y-107950000D01*
X69467963Y-108126627D01*
X69416443Y-108296466D01*
X69332778Y-108452991D01*
X69303448Y-108488729D01*
X69220186Y-108590186D01*
X69118729Y-108673448D01*
X69082991Y-108702778D01*
X68926466Y-108786443D01*
X68756627Y-108837963D01*
X68690442Y-108844482D01*
X68624260Y-108851000D01*
X68535740Y-108851000D01*
X68469558Y-108844482D01*
X68403373Y-108837963D01*
X68233534Y-108786443D01*
X68077009Y-108702778D01*
X68041271Y-108673448D01*
X67939814Y-108590186D01*
X67856552Y-108488729D01*
X67827222Y-108452991D01*
X67743557Y-108296466D01*
X67692037Y-108126627D01*
X67674641Y-107950000D01*
X67692037Y-107773373D01*
X67743557Y-107603534D01*
X67827222Y-107447009D01*
X67856552Y-107411271D01*
X67939814Y-107309814D01*
X68041271Y-107226552D01*
X68077009Y-107197222D01*
X68233534Y-107113557D01*
X68403373Y-107062037D01*
X68469558Y-107055518D01*
X68535740Y-107049000D01*
X68624260Y-107049000D01*
X68690442Y-107055518D01*
X68690442Y-107055518D01*
G37*
G36*
X64880442Y-107055518D02*
G01*
X64946627Y-107062037D01*
X65116466Y-107113557D01*
X65272991Y-107197222D01*
X65308729Y-107226552D01*
X65410186Y-107309814D01*
X65493448Y-107411271D01*
X65522778Y-107447009D01*
X65606443Y-107603534D01*
X65657963Y-107773373D01*
X65675359Y-107950000D01*
X65657963Y-108126627D01*
X65606443Y-108296466D01*
X65522778Y-108452991D01*
X65493448Y-108488729D01*
X65410186Y-108590186D01*
X65308729Y-108673448D01*
X65272991Y-108702778D01*
X65116466Y-108786443D01*
X64946627Y-108837963D01*
X64880442Y-108844482D01*
X64814260Y-108851000D01*
X64725740Y-108851000D01*
X64659558Y-108844482D01*
X64593373Y-108837963D01*
X64423534Y-108786443D01*
X64267009Y-108702778D01*
X64231271Y-108673448D01*
X64129814Y-108590186D01*
X64046552Y-108488729D01*
X64017222Y-108452991D01*
X63933557Y-108296466D01*
X63882037Y-108126627D01*
X63864641Y-107950000D01*
X63882037Y-107773373D01*
X63933557Y-107603534D01*
X64017222Y-107447009D01*
X64046552Y-107411271D01*
X64129814Y-107309814D01*
X64231271Y-107226552D01*
X64267009Y-107197222D01*
X64423534Y-107113557D01*
X64593373Y-107062037D01*
X64659558Y-107055518D01*
X64725740Y-107049000D01*
X64814260Y-107049000D01*
X64880442Y-107055518D01*
X64880442Y-107055518D01*
G37*
G36*
X64880443Y-104515519D02*
G01*
X64946627Y-104522037D01*
X65116466Y-104573557D01*
X65272991Y-104657222D01*
X65308729Y-104686552D01*
X65410186Y-104769814D01*
X65493448Y-104871271D01*
X65522778Y-104907009D01*
X65606443Y-105063534D01*
X65657963Y-105233373D01*
X65675359Y-105410000D01*
X65657963Y-105586627D01*
X65606443Y-105756466D01*
X65522778Y-105912991D01*
X65493448Y-105948729D01*
X65410186Y-106050186D01*
X65308729Y-106133448D01*
X65272991Y-106162778D01*
X65116466Y-106246443D01*
X64946627Y-106297963D01*
X64880442Y-106304482D01*
X64814260Y-106311000D01*
X64725740Y-106311000D01*
X64659558Y-106304482D01*
X64593373Y-106297963D01*
X64423534Y-106246443D01*
X64267009Y-106162778D01*
X64231271Y-106133448D01*
X64129814Y-106050186D01*
X64046552Y-105948729D01*
X64017222Y-105912991D01*
X63933557Y-105756466D01*
X63882037Y-105586627D01*
X63864641Y-105410000D01*
X63882037Y-105233373D01*
X63933557Y-105063534D01*
X64017222Y-104907009D01*
X64046552Y-104871271D01*
X64129814Y-104769814D01*
X64231271Y-104686552D01*
X64267009Y-104657222D01*
X64423534Y-104573557D01*
X64593373Y-104522037D01*
X64659557Y-104515519D01*
X64725740Y-104509000D01*
X64814260Y-104509000D01*
X64880443Y-104515519D01*
X64880443Y-104515519D01*
G37*
G36*
X83930443Y-104515519D02*
G01*
X83996627Y-104522037D01*
X84166466Y-104573557D01*
X84322991Y-104657222D01*
X84358729Y-104686552D01*
X84460186Y-104769814D01*
X84543448Y-104871271D01*
X84572778Y-104907009D01*
X84656443Y-105063534D01*
X84707963Y-105233373D01*
X84725359Y-105410000D01*
X84707963Y-105586627D01*
X84656443Y-105756466D01*
X84572778Y-105912991D01*
X84543448Y-105948729D01*
X84460186Y-106050186D01*
X84358729Y-106133448D01*
X84322991Y-106162778D01*
X84166466Y-106246443D01*
X83996627Y-106297963D01*
X83930442Y-106304482D01*
X83864260Y-106311000D01*
X83775740Y-106311000D01*
X83709558Y-106304482D01*
X83643373Y-106297963D01*
X83473534Y-106246443D01*
X83317009Y-106162778D01*
X83281271Y-106133448D01*
X83179814Y-106050186D01*
X83096552Y-105948729D01*
X83067222Y-105912991D01*
X82983557Y-105756466D01*
X82932037Y-105586627D01*
X82914641Y-105410000D01*
X82932037Y-105233373D01*
X82983557Y-105063534D01*
X83067222Y-104907009D01*
X83096552Y-104871271D01*
X83179814Y-104769814D01*
X83281271Y-104686552D01*
X83317009Y-104657222D01*
X83473534Y-104573557D01*
X83643373Y-104522037D01*
X83709557Y-104515519D01*
X83775740Y-104509000D01*
X83864260Y-104509000D01*
X83930443Y-104515519D01*
X83930443Y-104515519D01*
G37*
G36*
X68690443Y-104515519D02*
G01*
X68756627Y-104522037D01*
X68926466Y-104573557D01*
X69082991Y-104657222D01*
X69118729Y-104686552D01*
X69220186Y-104769814D01*
X69303448Y-104871271D01*
X69332778Y-104907009D01*
X69416443Y-105063534D01*
X69467963Y-105233373D01*
X69485359Y-105410000D01*
X69467963Y-105586627D01*
X69416443Y-105756466D01*
X69332778Y-105912991D01*
X69303448Y-105948729D01*
X69220186Y-106050186D01*
X69118729Y-106133448D01*
X69082991Y-106162778D01*
X68926466Y-106246443D01*
X68756627Y-106297963D01*
X68690442Y-106304482D01*
X68624260Y-106311000D01*
X68535740Y-106311000D01*
X68469558Y-106304482D01*
X68403373Y-106297963D01*
X68233534Y-106246443D01*
X68077009Y-106162778D01*
X68041271Y-106133448D01*
X67939814Y-106050186D01*
X67856552Y-105948729D01*
X67827222Y-105912991D01*
X67743557Y-105756466D01*
X67692037Y-105586627D01*
X67674641Y-105410000D01*
X67692037Y-105233373D01*
X67743557Y-105063534D01*
X67827222Y-104907009D01*
X67856552Y-104871271D01*
X67939814Y-104769814D01*
X68041271Y-104686552D01*
X68077009Y-104657222D01*
X68233534Y-104573557D01*
X68403373Y-104522037D01*
X68469557Y-104515519D01*
X68535740Y-104509000D01*
X68624260Y-104509000D01*
X68690443Y-104515519D01*
X68690443Y-104515519D01*
G37*
G36*
X68690442Y-101975518D02*
G01*
X68756627Y-101982037D01*
X68926466Y-102033557D01*
X69082991Y-102117222D01*
X69118729Y-102146552D01*
X69220186Y-102229814D01*
X69303448Y-102331271D01*
X69332778Y-102367009D01*
X69416443Y-102523534D01*
X69467963Y-102693373D01*
X69485359Y-102870000D01*
X69467963Y-103046627D01*
X69416443Y-103216466D01*
X69332778Y-103372991D01*
X69303448Y-103408729D01*
X69220186Y-103510186D01*
X69118729Y-103593448D01*
X69082991Y-103622778D01*
X68926466Y-103706443D01*
X68756627Y-103757963D01*
X68690443Y-103764481D01*
X68624260Y-103771000D01*
X68535740Y-103771000D01*
X68469557Y-103764481D01*
X68403373Y-103757963D01*
X68233534Y-103706443D01*
X68077009Y-103622778D01*
X68041271Y-103593448D01*
X67939814Y-103510186D01*
X67856552Y-103408729D01*
X67827222Y-103372991D01*
X67743557Y-103216466D01*
X67692037Y-103046627D01*
X67674641Y-102870000D01*
X67692037Y-102693373D01*
X67743557Y-102523534D01*
X67827222Y-102367009D01*
X67856552Y-102331271D01*
X67939814Y-102229814D01*
X68041271Y-102146552D01*
X68077009Y-102117222D01*
X68233534Y-102033557D01*
X68403373Y-101982037D01*
X68469558Y-101975518D01*
X68535740Y-101969000D01*
X68624260Y-101969000D01*
X68690442Y-101975518D01*
X68690442Y-101975518D01*
G37*
G36*
X64880442Y-101975518D02*
G01*
X64946627Y-101982037D01*
X65116466Y-102033557D01*
X65272991Y-102117222D01*
X65308729Y-102146552D01*
X65410186Y-102229814D01*
X65493448Y-102331271D01*
X65522778Y-102367009D01*
X65606443Y-102523534D01*
X65657963Y-102693373D01*
X65675359Y-102870000D01*
X65657963Y-103046627D01*
X65606443Y-103216466D01*
X65522778Y-103372991D01*
X65493448Y-103408729D01*
X65410186Y-103510186D01*
X65308729Y-103593448D01*
X65272991Y-103622778D01*
X65116466Y-103706443D01*
X64946627Y-103757963D01*
X64880443Y-103764481D01*
X64814260Y-103771000D01*
X64725740Y-103771000D01*
X64659557Y-103764481D01*
X64593373Y-103757963D01*
X64423534Y-103706443D01*
X64267009Y-103622778D01*
X64231271Y-103593448D01*
X64129814Y-103510186D01*
X64046552Y-103408729D01*
X64017222Y-103372991D01*
X63933557Y-103216466D01*
X63882037Y-103046627D01*
X63864641Y-102870000D01*
X63882037Y-102693373D01*
X63933557Y-102523534D01*
X64017222Y-102367009D01*
X64046552Y-102331271D01*
X64129814Y-102229814D01*
X64231271Y-102146552D01*
X64267009Y-102117222D01*
X64423534Y-102033557D01*
X64593373Y-101982037D01*
X64659558Y-101975518D01*
X64725740Y-101969000D01*
X64814260Y-101969000D01*
X64880442Y-101975518D01*
X64880442Y-101975518D01*
G37*
G36*
X83930442Y-101975518D02*
G01*
X83996627Y-101982037D01*
X84166466Y-102033557D01*
X84322991Y-102117222D01*
X84358729Y-102146552D01*
X84460186Y-102229814D01*
X84543448Y-102331271D01*
X84572778Y-102367009D01*
X84656443Y-102523534D01*
X84707963Y-102693373D01*
X84725359Y-102870000D01*
X84707963Y-103046627D01*
X84656443Y-103216466D01*
X84572778Y-103372991D01*
X84543448Y-103408729D01*
X84460186Y-103510186D01*
X84358729Y-103593448D01*
X84322991Y-103622778D01*
X84166466Y-103706443D01*
X83996627Y-103757963D01*
X83930443Y-103764481D01*
X83864260Y-103771000D01*
X83775740Y-103771000D01*
X83709557Y-103764481D01*
X83643373Y-103757963D01*
X83473534Y-103706443D01*
X83317009Y-103622778D01*
X83281271Y-103593448D01*
X83179814Y-103510186D01*
X83096552Y-103408729D01*
X83067222Y-103372991D01*
X82983557Y-103216466D01*
X82932037Y-103046627D01*
X82914641Y-102870000D01*
X82932037Y-102693373D01*
X82983557Y-102523534D01*
X83067222Y-102367009D01*
X83096552Y-102331271D01*
X83179814Y-102229814D01*
X83281271Y-102146552D01*
X83317009Y-102117222D01*
X83473534Y-102033557D01*
X83643373Y-101982037D01*
X83709558Y-101975518D01*
X83775740Y-101969000D01*
X83864260Y-101969000D01*
X83930442Y-101975518D01*
X83930442Y-101975518D01*
G37*
G36*
X68690443Y-99435519D02*
G01*
X68756627Y-99442037D01*
X68926466Y-99493557D01*
X69082991Y-99577222D01*
X69118729Y-99606552D01*
X69220186Y-99689814D01*
X69303448Y-99791271D01*
X69332778Y-99827009D01*
X69416443Y-99983534D01*
X69467963Y-100153373D01*
X69485359Y-100330000D01*
X69467963Y-100506627D01*
X69416443Y-100676466D01*
X69332778Y-100832991D01*
X69303448Y-100868729D01*
X69220186Y-100970186D01*
X69118729Y-101053448D01*
X69082991Y-101082778D01*
X68926466Y-101166443D01*
X68756627Y-101217963D01*
X68690443Y-101224481D01*
X68624260Y-101231000D01*
X68535740Y-101231000D01*
X68469558Y-101224482D01*
X68403373Y-101217963D01*
X68233534Y-101166443D01*
X68077009Y-101082778D01*
X68041271Y-101053448D01*
X67939814Y-100970186D01*
X67856552Y-100868729D01*
X67827222Y-100832991D01*
X67743557Y-100676466D01*
X67692037Y-100506627D01*
X67674641Y-100330000D01*
X67692037Y-100153373D01*
X67743557Y-99983534D01*
X67827222Y-99827009D01*
X67856552Y-99791271D01*
X67939814Y-99689814D01*
X68041271Y-99606552D01*
X68077009Y-99577222D01*
X68233534Y-99493557D01*
X68403373Y-99442037D01*
X68469558Y-99435518D01*
X68535740Y-99429000D01*
X68624260Y-99429000D01*
X68690443Y-99435519D01*
X68690443Y-99435519D01*
G37*
G36*
X64880443Y-99435519D02*
G01*
X64946627Y-99442037D01*
X65116466Y-99493557D01*
X65272991Y-99577222D01*
X65308729Y-99606552D01*
X65410186Y-99689814D01*
X65493448Y-99791271D01*
X65522778Y-99827009D01*
X65606443Y-99983534D01*
X65657963Y-100153373D01*
X65675359Y-100330000D01*
X65657963Y-100506627D01*
X65606443Y-100676466D01*
X65522778Y-100832991D01*
X65493448Y-100868729D01*
X65410186Y-100970186D01*
X65308729Y-101053448D01*
X65272991Y-101082778D01*
X65116466Y-101166443D01*
X64946627Y-101217963D01*
X64880443Y-101224481D01*
X64814260Y-101231000D01*
X64725740Y-101231000D01*
X64659558Y-101224482D01*
X64593373Y-101217963D01*
X64423534Y-101166443D01*
X64267009Y-101082778D01*
X64231271Y-101053448D01*
X64129814Y-100970186D01*
X64046552Y-100868729D01*
X64017222Y-100832991D01*
X63933557Y-100676466D01*
X63882037Y-100506627D01*
X63864641Y-100330000D01*
X63882037Y-100153373D01*
X63933557Y-99983534D01*
X64017222Y-99827009D01*
X64046552Y-99791271D01*
X64129814Y-99689814D01*
X64231271Y-99606552D01*
X64267009Y-99577222D01*
X64423534Y-99493557D01*
X64593373Y-99442037D01*
X64659558Y-99435518D01*
X64725740Y-99429000D01*
X64814260Y-99429000D01*
X64880443Y-99435519D01*
X64880443Y-99435519D01*
G37*
G36*
X84721000Y-101231000D02*
G01*
X82919000Y-101231000D01*
X82919000Y-99429000D01*
X84721000Y-99429000D01*
X84721000Y-101231000D01*
X84721000Y-101231000D01*
G37*
G36*
X68690442Y-96895518D02*
G01*
X68756627Y-96902037D01*
X68926466Y-96953557D01*
X69082991Y-97037222D01*
X69118729Y-97066552D01*
X69220186Y-97149814D01*
X69303448Y-97251271D01*
X69332778Y-97287009D01*
X69416443Y-97443534D01*
X69467963Y-97613373D01*
X69485359Y-97790000D01*
X69467963Y-97966627D01*
X69416443Y-98136466D01*
X69332778Y-98292991D01*
X69303448Y-98328729D01*
X69220186Y-98430186D01*
X69118729Y-98513448D01*
X69082991Y-98542778D01*
X68926466Y-98626443D01*
X68756627Y-98677963D01*
X68690442Y-98684482D01*
X68624260Y-98691000D01*
X68535740Y-98691000D01*
X68469558Y-98684482D01*
X68403373Y-98677963D01*
X68233534Y-98626443D01*
X68077009Y-98542778D01*
X68041271Y-98513448D01*
X67939814Y-98430186D01*
X67856552Y-98328729D01*
X67827222Y-98292991D01*
X67743557Y-98136466D01*
X67692037Y-97966627D01*
X67674641Y-97790000D01*
X67692037Y-97613373D01*
X67743557Y-97443534D01*
X67827222Y-97287009D01*
X67856552Y-97251271D01*
X67939814Y-97149814D01*
X68041271Y-97066552D01*
X68077009Y-97037222D01*
X68233534Y-96953557D01*
X68403373Y-96902037D01*
X68469558Y-96895518D01*
X68535740Y-96889000D01*
X68624260Y-96889000D01*
X68690442Y-96895518D01*
X68690442Y-96895518D01*
G37*
G36*
X64880442Y-96895518D02*
G01*
X64946627Y-96902037D01*
X65116466Y-96953557D01*
X65272991Y-97037222D01*
X65308729Y-97066552D01*
X65410186Y-97149814D01*
X65493448Y-97251271D01*
X65522778Y-97287009D01*
X65606443Y-97443534D01*
X65657963Y-97613373D01*
X65675359Y-97790000D01*
X65657963Y-97966627D01*
X65606443Y-98136466D01*
X65522778Y-98292991D01*
X65493448Y-98328729D01*
X65410186Y-98430186D01*
X65308729Y-98513448D01*
X65272991Y-98542778D01*
X65116466Y-98626443D01*
X64946627Y-98677963D01*
X64880442Y-98684482D01*
X64814260Y-98691000D01*
X64725740Y-98691000D01*
X64659558Y-98684482D01*
X64593373Y-98677963D01*
X64423534Y-98626443D01*
X64267009Y-98542778D01*
X64231271Y-98513448D01*
X64129814Y-98430186D01*
X64046552Y-98328729D01*
X64017222Y-98292991D01*
X63933557Y-98136466D01*
X63882037Y-97966627D01*
X63864641Y-97790000D01*
X63882037Y-97613373D01*
X63933557Y-97443534D01*
X64017222Y-97287009D01*
X64046552Y-97251271D01*
X64129814Y-97149814D01*
X64231271Y-97066552D01*
X64267009Y-97037222D01*
X64423534Y-96953557D01*
X64593373Y-96902037D01*
X64659558Y-96895518D01*
X64725740Y-96889000D01*
X64814260Y-96889000D01*
X64880442Y-96895518D01*
X64880442Y-96895518D01*
G37*
G36*
X64880442Y-94355518D02*
G01*
X64946627Y-94362037D01*
X65116466Y-94413557D01*
X65272991Y-94497222D01*
X65308729Y-94526552D01*
X65410186Y-94609814D01*
X65493448Y-94711271D01*
X65522778Y-94747009D01*
X65606443Y-94903534D01*
X65657963Y-95073373D01*
X65675359Y-95250000D01*
X65657963Y-95426627D01*
X65606443Y-95596466D01*
X65522778Y-95752991D01*
X65493448Y-95788729D01*
X65410186Y-95890186D01*
X65308729Y-95973448D01*
X65272991Y-96002778D01*
X65116466Y-96086443D01*
X64946627Y-96137963D01*
X64880442Y-96144482D01*
X64814260Y-96151000D01*
X64725740Y-96151000D01*
X64659558Y-96144482D01*
X64593373Y-96137963D01*
X64423534Y-96086443D01*
X64267009Y-96002778D01*
X64231271Y-95973448D01*
X64129814Y-95890186D01*
X64046552Y-95788729D01*
X64017222Y-95752991D01*
X63933557Y-95596466D01*
X63882037Y-95426627D01*
X63864641Y-95250000D01*
X63882037Y-95073373D01*
X63933557Y-94903534D01*
X64017222Y-94747009D01*
X64046552Y-94711271D01*
X64129814Y-94609814D01*
X64231271Y-94526552D01*
X64267009Y-94497222D01*
X64423534Y-94413557D01*
X64593373Y-94362037D01*
X64659558Y-94355518D01*
X64725740Y-94349000D01*
X64814260Y-94349000D01*
X64880442Y-94355518D01*
X64880442Y-94355518D01*
G37*
G36*
X68690442Y-94355518D02*
G01*
X68756627Y-94362037D01*
X68926466Y-94413557D01*
X69082991Y-94497222D01*
X69118729Y-94526552D01*
X69220186Y-94609814D01*
X69303448Y-94711271D01*
X69332778Y-94747009D01*
X69416443Y-94903534D01*
X69467963Y-95073373D01*
X69485359Y-95250000D01*
X69467963Y-95426627D01*
X69416443Y-95596466D01*
X69332778Y-95752991D01*
X69303448Y-95788729D01*
X69220186Y-95890186D01*
X69118729Y-95973448D01*
X69082991Y-96002778D01*
X68926466Y-96086443D01*
X68756627Y-96137963D01*
X68690442Y-96144482D01*
X68624260Y-96151000D01*
X68535740Y-96151000D01*
X68469558Y-96144482D01*
X68403373Y-96137963D01*
X68233534Y-96086443D01*
X68077009Y-96002778D01*
X68041271Y-95973448D01*
X67939814Y-95890186D01*
X67856552Y-95788729D01*
X67827222Y-95752991D01*
X67743557Y-95596466D01*
X67692037Y-95426627D01*
X67674641Y-95250000D01*
X67692037Y-95073373D01*
X67743557Y-94903534D01*
X67827222Y-94747009D01*
X67856552Y-94711271D01*
X67939814Y-94609814D01*
X68041271Y-94526552D01*
X68077009Y-94497222D01*
X68233534Y-94413557D01*
X68403373Y-94362037D01*
X68469558Y-94355518D01*
X68535740Y-94349000D01*
X68624260Y-94349000D01*
X68690442Y-94355518D01*
X68690442Y-94355518D01*
G37*
G36*
X133490442Y-92755518D02*
G01*
X133556627Y-92762037D01*
X133726466Y-92813557D01*
X133882991Y-92897222D01*
X133918729Y-92926552D01*
X134020186Y-93009814D01*
X134103448Y-93111271D01*
X134132778Y-93147009D01*
X134216443Y-93303534D01*
X134267963Y-93473373D01*
X134285359Y-93650000D01*
X134267963Y-93826627D01*
X134216443Y-93996466D01*
X134132778Y-94152991D01*
X134103448Y-94188729D01*
X134020186Y-94290186D01*
X133932634Y-94362037D01*
X133882991Y-94402778D01*
X133726466Y-94486443D01*
X133556627Y-94537963D01*
X133490442Y-94544482D01*
X133424260Y-94551000D01*
X133335740Y-94551000D01*
X133269558Y-94544482D01*
X133203373Y-94537963D01*
X133033534Y-94486443D01*
X132877009Y-94402778D01*
X132827366Y-94362037D01*
X132739814Y-94290186D01*
X132656552Y-94188729D01*
X132627222Y-94152991D01*
X132543557Y-93996466D01*
X132492037Y-93826627D01*
X132474641Y-93650000D01*
X132492037Y-93473373D01*
X132543557Y-93303534D01*
X132627222Y-93147009D01*
X132656552Y-93111271D01*
X132739814Y-93009814D01*
X132841271Y-92926552D01*
X132877009Y-92897222D01*
X133033534Y-92813557D01*
X133203373Y-92762037D01*
X133269558Y-92755518D01*
X133335740Y-92749000D01*
X133424260Y-92749000D01*
X133490442Y-92755518D01*
X133490442Y-92755518D01*
G37*
G36*
X128410442Y-92755518D02*
G01*
X128476627Y-92762037D01*
X128646466Y-92813557D01*
X128802991Y-92897222D01*
X128838729Y-92926552D01*
X128940186Y-93009814D01*
X129023448Y-93111271D01*
X129052778Y-93147009D01*
X129136443Y-93303534D01*
X129187963Y-93473373D01*
X129205359Y-93650000D01*
X129187963Y-93826627D01*
X129136443Y-93996466D01*
X129052778Y-94152991D01*
X129023448Y-94188729D01*
X128940186Y-94290186D01*
X128852634Y-94362037D01*
X128802991Y-94402778D01*
X128646466Y-94486443D01*
X128476627Y-94537963D01*
X128410442Y-94544482D01*
X128344260Y-94551000D01*
X128255740Y-94551000D01*
X128189558Y-94544482D01*
X128123373Y-94537963D01*
X127953534Y-94486443D01*
X127797009Y-94402778D01*
X127747366Y-94362037D01*
X127659814Y-94290186D01*
X127576552Y-94188729D01*
X127547222Y-94152991D01*
X127463557Y-93996466D01*
X127412037Y-93826627D01*
X127394641Y-93650000D01*
X127412037Y-93473373D01*
X127463557Y-93303534D01*
X127547222Y-93147009D01*
X127576552Y-93111271D01*
X127659814Y-93009814D01*
X127761271Y-92926552D01*
X127797009Y-92897222D01*
X127953534Y-92813557D01*
X128123373Y-92762037D01*
X128189558Y-92755518D01*
X128255740Y-92749000D01*
X128344260Y-92749000D01*
X128410442Y-92755518D01*
X128410442Y-92755518D01*
G37*
G36*
X130950442Y-92755518D02*
G01*
X131016627Y-92762037D01*
X131186466Y-92813557D01*
X131342991Y-92897222D01*
X131378729Y-92926552D01*
X131480186Y-93009814D01*
X131563448Y-93111271D01*
X131592778Y-93147009D01*
X131676443Y-93303534D01*
X131727963Y-93473373D01*
X131745359Y-93650000D01*
X131727963Y-93826627D01*
X131676443Y-93996466D01*
X131592778Y-94152991D01*
X131563448Y-94188729D01*
X131480186Y-94290186D01*
X131392634Y-94362037D01*
X131342991Y-94402778D01*
X131186466Y-94486443D01*
X131016627Y-94537963D01*
X130950442Y-94544482D01*
X130884260Y-94551000D01*
X130795740Y-94551000D01*
X130729558Y-94544482D01*
X130663373Y-94537963D01*
X130493534Y-94486443D01*
X130337009Y-94402778D01*
X130287366Y-94362037D01*
X130199814Y-94290186D01*
X130116552Y-94188729D01*
X130087222Y-94152991D01*
X130003557Y-93996466D01*
X129952037Y-93826627D01*
X129934641Y-93650000D01*
X129952037Y-93473373D01*
X130003557Y-93303534D01*
X130087222Y-93147009D01*
X130116552Y-93111271D01*
X130199814Y-93009814D01*
X130301271Y-92926552D01*
X130337009Y-92897222D01*
X130493534Y-92813557D01*
X130663373Y-92762037D01*
X130729558Y-92755518D01*
X130795740Y-92749000D01*
X130884260Y-92749000D01*
X130950442Y-92755518D01*
X130950442Y-92755518D01*
G37*
G36*
X136030442Y-92755518D02*
G01*
X136096627Y-92762037D01*
X136266466Y-92813557D01*
X136422991Y-92897222D01*
X136458729Y-92926552D01*
X136560186Y-93009814D01*
X136643448Y-93111271D01*
X136672778Y-93147009D01*
X136756443Y-93303534D01*
X136807963Y-93473373D01*
X136825359Y-93650000D01*
X136807963Y-93826627D01*
X136756443Y-93996466D01*
X136672778Y-94152991D01*
X136643448Y-94188729D01*
X136560186Y-94290186D01*
X136472634Y-94362037D01*
X136422991Y-94402778D01*
X136266466Y-94486443D01*
X136096627Y-94537963D01*
X136030442Y-94544482D01*
X135964260Y-94551000D01*
X135875740Y-94551000D01*
X135809558Y-94544482D01*
X135743373Y-94537963D01*
X135573534Y-94486443D01*
X135417009Y-94402778D01*
X135367366Y-94362037D01*
X135279814Y-94290186D01*
X135196552Y-94188729D01*
X135167222Y-94152991D01*
X135083557Y-93996466D01*
X135032037Y-93826627D01*
X135014641Y-93650000D01*
X135032037Y-93473373D01*
X135083557Y-93303534D01*
X135167222Y-93147009D01*
X135196552Y-93111271D01*
X135279814Y-93009814D01*
X135381271Y-92926552D01*
X135417009Y-92897222D01*
X135573534Y-92813557D01*
X135743373Y-92762037D01*
X135809558Y-92755518D01*
X135875740Y-92749000D01*
X135964260Y-92749000D01*
X136030442Y-92755518D01*
X136030442Y-92755518D01*
G37*
G36*
X138570442Y-92755518D02*
G01*
X138636627Y-92762037D01*
X138806466Y-92813557D01*
X138962991Y-92897222D01*
X138998729Y-92926552D01*
X139100186Y-93009814D01*
X139183448Y-93111271D01*
X139212778Y-93147009D01*
X139296443Y-93303534D01*
X139347963Y-93473373D01*
X139365359Y-93650000D01*
X139347963Y-93826627D01*
X139296443Y-93996466D01*
X139212778Y-94152991D01*
X139183448Y-94188729D01*
X139100186Y-94290186D01*
X139012634Y-94362037D01*
X138962991Y-94402778D01*
X138806466Y-94486443D01*
X138636627Y-94537963D01*
X138570442Y-94544482D01*
X138504260Y-94551000D01*
X138415740Y-94551000D01*
X138349558Y-94544482D01*
X138283373Y-94537963D01*
X138113534Y-94486443D01*
X137957009Y-94402778D01*
X137907366Y-94362037D01*
X137819814Y-94290186D01*
X137736552Y-94188729D01*
X137707222Y-94152991D01*
X137623557Y-93996466D01*
X137572037Y-93826627D01*
X137554641Y-93650000D01*
X137572037Y-93473373D01*
X137623557Y-93303534D01*
X137707222Y-93147009D01*
X137736552Y-93111271D01*
X137819814Y-93009814D01*
X137921271Y-92926552D01*
X137957009Y-92897222D01*
X138113534Y-92813557D01*
X138283373Y-92762037D01*
X138349558Y-92755518D01*
X138415740Y-92749000D01*
X138504260Y-92749000D01*
X138570442Y-92755518D01*
X138570442Y-92755518D01*
G37*
G36*
X91101000Y-94551000D02*
G01*
X89299000Y-94551000D01*
X89299000Y-92749000D01*
X91101000Y-92749000D01*
X91101000Y-94551000D01*
X91101000Y-94551000D01*
G37*
G36*
X92850442Y-92755518D02*
G01*
X92916627Y-92762037D01*
X93086466Y-92813557D01*
X93242991Y-92897222D01*
X93278729Y-92926552D01*
X93380186Y-93009814D01*
X93463448Y-93111271D01*
X93492778Y-93147009D01*
X93576443Y-93303534D01*
X93627963Y-93473373D01*
X93645359Y-93650000D01*
X93627963Y-93826627D01*
X93576443Y-93996466D01*
X93492778Y-94152991D01*
X93463448Y-94188729D01*
X93380186Y-94290186D01*
X93292634Y-94362037D01*
X93242991Y-94402778D01*
X93086466Y-94486443D01*
X92916627Y-94537963D01*
X92850442Y-94544482D01*
X92784260Y-94551000D01*
X92695740Y-94551000D01*
X92629558Y-94544482D01*
X92563373Y-94537963D01*
X92393534Y-94486443D01*
X92237009Y-94402778D01*
X92187366Y-94362037D01*
X92099814Y-94290186D01*
X92016552Y-94188729D01*
X91987222Y-94152991D01*
X91903557Y-93996466D01*
X91852037Y-93826627D01*
X91834641Y-93650000D01*
X91852037Y-93473373D01*
X91903557Y-93303534D01*
X91987222Y-93147009D01*
X92016552Y-93111271D01*
X92099814Y-93009814D01*
X92201271Y-92926552D01*
X92237009Y-92897222D01*
X92393534Y-92813557D01*
X92563373Y-92762037D01*
X92629558Y-92755518D01*
X92695740Y-92749000D01*
X92784260Y-92749000D01*
X92850442Y-92755518D01*
X92850442Y-92755518D01*
G37*
G36*
X95390442Y-92755518D02*
G01*
X95456627Y-92762037D01*
X95626466Y-92813557D01*
X95782991Y-92897222D01*
X95818729Y-92926552D01*
X95920186Y-93009814D01*
X96003448Y-93111271D01*
X96032778Y-93147009D01*
X96116443Y-93303534D01*
X96167963Y-93473373D01*
X96185359Y-93650000D01*
X96167963Y-93826627D01*
X96116443Y-93996466D01*
X96032778Y-94152991D01*
X96003448Y-94188729D01*
X95920186Y-94290186D01*
X95832634Y-94362037D01*
X95782991Y-94402778D01*
X95626466Y-94486443D01*
X95456627Y-94537963D01*
X95390442Y-94544482D01*
X95324260Y-94551000D01*
X95235740Y-94551000D01*
X95169558Y-94544482D01*
X95103373Y-94537963D01*
X94933534Y-94486443D01*
X94777009Y-94402778D01*
X94727366Y-94362037D01*
X94639814Y-94290186D01*
X94556552Y-94188729D01*
X94527222Y-94152991D01*
X94443557Y-93996466D01*
X94392037Y-93826627D01*
X94374641Y-93650000D01*
X94392037Y-93473373D01*
X94443557Y-93303534D01*
X94527222Y-93147009D01*
X94556552Y-93111271D01*
X94639814Y-93009814D01*
X94741271Y-92926552D01*
X94777009Y-92897222D01*
X94933534Y-92813557D01*
X95103373Y-92762037D01*
X95169558Y-92755518D01*
X95235740Y-92749000D01*
X95324260Y-92749000D01*
X95390442Y-92755518D01*
X95390442Y-92755518D01*
G37*
G36*
X123330442Y-92755518D02*
G01*
X123396627Y-92762037D01*
X123566466Y-92813557D01*
X123722991Y-92897222D01*
X123758729Y-92926552D01*
X123860186Y-93009814D01*
X123943448Y-93111271D01*
X123972778Y-93147009D01*
X124056443Y-93303534D01*
X124107963Y-93473373D01*
X124125359Y-93650000D01*
X124107963Y-93826627D01*
X124056443Y-93996466D01*
X123972778Y-94152991D01*
X123943448Y-94188729D01*
X123860186Y-94290186D01*
X123772634Y-94362037D01*
X123722991Y-94402778D01*
X123566466Y-94486443D01*
X123396627Y-94537963D01*
X123330442Y-94544482D01*
X123264260Y-94551000D01*
X123175740Y-94551000D01*
X123109558Y-94544482D01*
X123043373Y-94537963D01*
X122873534Y-94486443D01*
X122717009Y-94402778D01*
X122667366Y-94362037D01*
X122579814Y-94290186D01*
X122496552Y-94188729D01*
X122467222Y-94152991D01*
X122383557Y-93996466D01*
X122332037Y-93826627D01*
X122314641Y-93650000D01*
X122332037Y-93473373D01*
X122383557Y-93303534D01*
X122467222Y-93147009D01*
X122496552Y-93111271D01*
X122579814Y-93009814D01*
X122681271Y-92926552D01*
X122717009Y-92897222D01*
X122873534Y-92813557D01*
X123043373Y-92762037D01*
X123109558Y-92755518D01*
X123175740Y-92749000D01*
X123264260Y-92749000D01*
X123330442Y-92755518D01*
X123330442Y-92755518D01*
G37*
G36*
X120790442Y-92755518D02*
G01*
X120856627Y-92762037D01*
X121026466Y-92813557D01*
X121182991Y-92897222D01*
X121218729Y-92926552D01*
X121320186Y-93009814D01*
X121403448Y-93111271D01*
X121432778Y-93147009D01*
X121516443Y-93303534D01*
X121567963Y-93473373D01*
X121585359Y-93650000D01*
X121567963Y-93826627D01*
X121516443Y-93996466D01*
X121432778Y-94152991D01*
X121403448Y-94188729D01*
X121320186Y-94290186D01*
X121232634Y-94362037D01*
X121182991Y-94402778D01*
X121026466Y-94486443D01*
X120856627Y-94537963D01*
X120790442Y-94544482D01*
X120724260Y-94551000D01*
X120635740Y-94551000D01*
X120569558Y-94544482D01*
X120503373Y-94537963D01*
X120333534Y-94486443D01*
X120177009Y-94402778D01*
X120127366Y-94362037D01*
X120039814Y-94290186D01*
X119956552Y-94188729D01*
X119927222Y-94152991D01*
X119843557Y-93996466D01*
X119792037Y-93826627D01*
X119774641Y-93650000D01*
X119792037Y-93473373D01*
X119843557Y-93303534D01*
X119927222Y-93147009D01*
X119956552Y-93111271D01*
X120039814Y-93009814D01*
X120141271Y-92926552D01*
X120177009Y-92897222D01*
X120333534Y-92813557D01*
X120503373Y-92762037D01*
X120569558Y-92755518D01*
X120635740Y-92749000D01*
X120724260Y-92749000D01*
X120790442Y-92755518D01*
X120790442Y-92755518D01*
G37*
G36*
X115710442Y-92755518D02*
G01*
X115776627Y-92762037D01*
X115946466Y-92813557D01*
X116102991Y-92897222D01*
X116138729Y-92926552D01*
X116240186Y-93009814D01*
X116323448Y-93111271D01*
X116352778Y-93147009D01*
X116436443Y-93303534D01*
X116487963Y-93473373D01*
X116505359Y-93650000D01*
X116487963Y-93826627D01*
X116436443Y-93996466D01*
X116352778Y-94152991D01*
X116323448Y-94188729D01*
X116240186Y-94290186D01*
X116152634Y-94362037D01*
X116102991Y-94402778D01*
X115946466Y-94486443D01*
X115776627Y-94537963D01*
X115710442Y-94544482D01*
X115644260Y-94551000D01*
X115555740Y-94551000D01*
X115489558Y-94544482D01*
X115423373Y-94537963D01*
X115253534Y-94486443D01*
X115097009Y-94402778D01*
X115047366Y-94362037D01*
X114959814Y-94290186D01*
X114876552Y-94188729D01*
X114847222Y-94152991D01*
X114763557Y-93996466D01*
X114712037Y-93826627D01*
X114694641Y-93650000D01*
X114712037Y-93473373D01*
X114763557Y-93303534D01*
X114847222Y-93147009D01*
X114876552Y-93111271D01*
X114959814Y-93009814D01*
X115061271Y-92926552D01*
X115097009Y-92897222D01*
X115253534Y-92813557D01*
X115423373Y-92762037D01*
X115489558Y-92755518D01*
X115555740Y-92749000D01*
X115644260Y-92749000D01*
X115710442Y-92755518D01*
X115710442Y-92755518D01*
G37*
G36*
X113170442Y-92755518D02*
G01*
X113236627Y-92762037D01*
X113406466Y-92813557D01*
X113562991Y-92897222D01*
X113598729Y-92926552D01*
X113700186Y-93009814D01*
X113783448Y-93111271D01*
X113812778Y-93147009D01*
X113896443Y-93303534D01*
X113947963Y-93473373D01*
X113965359Y-93650000D01*
X113947963Y-93826627D01*
X113896443Y-93996466D01*
X113812778Y-94152991D01*
X113783448Y-94188729D01*
X113700186Y-94290186D01*
X113612634Y-94362037D01*
X113562991Y-94402778D01*
X113406466Y-94486443D01*
X113236627Y-94537963D01*
X113170442Y-94544482D01*
X113104260Y-94551000D01*
X113015740Y-94551000D01*
X112949558Y-94544482D01*
X112883373Y-94537963D01*
X112713534Y-94486443D01*
X112557009Y-94402778D01*
X112507366Y-94362037D01*
X112419814Y-94290186D01*
X112336552Y-94188729D01*
X112307222Y-94152991D01*
X112223557Y-93996466D01*
X112172037Y-93826627D01*
X112154641Y-93650000D01*
X112172037Y-93473373D01*
X112223557Y-93303534D01*
X112307222Y-93147009D01*
X112336552Y-93111271D01*
X112419814Y-93009814D01*
X112521271Y-92926552D01*
X112557009Y-92897222D01*
X112713534Y-92813557D01*
X112883373Y-92762037D01*
X112949558Y-92755518D01*
X113015740Y-92749000D01*
X113104260Y-92749000D01*
X113170442Y-92755518D01*
X113170442Y-92755518D01*
G37*
G36*
X110630442Y-92755518D02*
G01*
X110696627Y-92762037D01*
X110866466Y-92813557D01*
X111022991Y-92897222D01*
X111058729Y-92926552D01*
X111160186Y-93009814D01*
X111243448Y-93111271D01*
X111272778Y-93147009D01*
X111356443Y-93303534D01*
X111407963Y-93473373D01*
X111425359Y-93650000D01*
X111407963Y-93826627D01*
X111356443Y-93996466D01*
X111272778Y-94152991D01*
X111243448Y-94188729D01*
X111160186Y-94290186D01*
X111072634Y-94362037D01*
X111022991Y-94402778D01*
X110866466Y-94486443D01*
X110696627Y-94537963D01*
X110630442Y-94544482D01*
X110564260Y-94551000D01*
X110475740Y-94551000D01*
X110409558Y-94544482D01*
X110343373Y-94537963D01*
X110173534Y-94486443D01*
X110017009Y-94402778D01*
X109967366Y-94362037D01*
X109879814Y-94290186D01*
X109796552Y-94188729D01*
X109767222Y-94152991D01*
X109683557Y-93996466D01*
X109632037Y-93826627D01*
X109614641Y-93650000D01*
X109632037Y-93473373D01*
X109683557Y-93303534D01*
X109767222Y-93147009D01*
X109796552Y-93111271D01*
X109879814Y-93009814D01*
X109981271Y-92926552D01*
X110017009Y-92897222D01*
X110173534Y-92813557D01*
X110343373Y-92762037D01*
X110409558Y-92755518D01*
X110475740Y-92749000D01*
X110564260Y-92749000D01*
X110630442Y-92755518D01*
X110630442Y-92755518D01*
G37*
G36*
X108090442Y-92755518D02*
G01*
X108156627Y-92762037D01*
X108326466Y-92813557D01*
X108482991Y-92897222D01*
X108518729Y-92926552D01*
X108620186Y-93009814D01*
X108703448Y-93111271D01*
X108732778Y-93147009D01*
X108816443Y-93303534D01*
X108867963Y-93473373D01*
X108885359Y-93650000D01*
X108867963Y-93826627D01*
X108816443Y-93996466D01*
X108732778Y-94152991D01*
X108703448Y-94188729D01*
X108620186Y-94290186D01*
X108532634Y-94362037D01*
X108482991Y-94402778D01*
X108326466Y-94486443D01*
X108156627Y-94537963D01*
X108090442Y-94544482D01*
X108024260Y-94551000D01*
X107935740Y-94551000D01*
X107869558Y-94544482D01*
X107803373Y-94537963D01*
X107633534Y-94486443D01*
X107477009Y-94402778D01*
X107427366Y-94362037D01*
X107339814Y-94290186D01*
X107256552Y-94188729D01*
X107227222Y-94152991D01*
X107143557Y-93996466D01*
X107092037Y-93826627D01*
X107074641Y-93650000D01*
X107092037Y-93473373D01*
X107143557Y-93303534D01*
X107227222Y-93147009D01*
X107256552Y-93111271D01*
X107339814Y-93009814D01*
X107441271Y-92926552D01*
X107477009Y-92897222D01*
X107633534Y-92813557D01*
X107803373Y-92762037D01*
X107869558Y-92755518D01*
X107935740Y-92749000D01*
X108024260Y-92749000D01*
X108090442Y-92755518D01*
X108090442Y-92755518D01*
G37*
G36*
X105550442Y-92755518D02*
G01*
X105616627Y-92762037D01*
X105786466Y-92813557D01*
X105942991Y-92897222D01*
X105978729Y-92926552D01*
X106080186Y-93009814D01*
X106163448Y-93111271D01*
X106192778Y-93147009D01*
X106276443Y-93303534D01*
X106327963Y-93473373D01*
X106345359Y-93650000D01*
X106327963Y-93826627D01*
X106276443Y-93996466D01*
X106192778Y-94152991D01*
X106163448Y-94188729D01*
X106080186Y-94290186D01*
X105992634Y-94362037D01*
X105942991Y-94402778D01*
X105786466Y-94486443D01*
X105616627Y-94537963D01*
X105550442Y-94544482D01*
X105484260Y-94551000D01*
X105395740Y-94551000D01*
X105329558Y-94544482D01*
X105263373Y-94537963D01*
X105093534Y-94486443D01*
X104937009Y-94402778D01*
X104887366Y-94362037D01*
X104799814Y-94290186D01*
X104716552Y-94188729D01*
X104687222Y-94152991D01*
X104603557Y-93996466D01*
X104552037Y-93826627D01*
X104534641Y-93650000D01*
X104552037Y-93473373D01*
X104603557Y-93303534D01*
X104687222Y-93147009D01*
X104716552Y-93111271D01*
X104799814Y-93009814D01*
X104901271Y-92926552D01*
X104937009Y-92897222D01*
X105093534Y-92813557D01*
X105263373Y-92762037D01*
X105329558Y-92755518D01*
X105395740Y-92749000D01*
X105484260Y-92749000D01*
X105550442Y-92755518D01*
X105550442Y-92755518D01*
G37*
G36*
X103010442Y-92755518D02*
G01*
X103076627Y-92762037D01*
X103246466Y-92813557D01*
X103402991Y-92897222D01*
X103438729Y-92926552D01*
X103540186Y-93009814D01*
X103623448Y-93111271D01*
X103652778Y-93147009D01*
X103736443Y-93303534D01*
X103787963Y-93473373D01*
X103805359Y-93650000D01*
X103787963Y-93826627D01*
X103736443Y-93996466D01*
X103652778Y-94152991D01*
X103623448Y-94188729D01*
X103540186Y-94290186D01*
X103452634Y-94362037D01*
X103402991Y-94402778D01*
X103246466Y-94486443D01*
X103076627Y-94537963D01*
X103010442Y-94544482D01*
X102944260Y-94551000D01*
X102855740Y-94551000D01*
X102789558Y-94544482D01*
X102723373Y-94537963D01*
X102553534Y-94486443D01*
X102397009Y-94402778D01*
X102347366Y-94362037D01*
X102259814Y-94290186D01*
X102176552Y-94188729D01*
X102147222Y-94152991D01*
X102063557Y-93996466D01*
X102012037Y-93826627D01*
X101994641Y-93650000D01*
X102012037Y-93473373D01*
X102063557Y-93303534D01*
X102147222Y-93147009D01*
X102176552Y-93111271D01*
X102259814Y-93009814D01*
X102361271Y-92926552D01*
X102397009Y-92897222D01*
X102553534Y-92813557D01*
X102723373Y-92762037D01*
X102789558Y-92755518D01*
X102855740Y-92749000D01*
X102944260Y-92749000D01*
X103010442Y-92755518D01*
X103010442Y-92755518D01*
G37*
G36*
X100470442Y-92755518D02*
G01*
X100536627Y-92762037D01*
X100706466Y-92813557D01*
X100862991Y-92897222D01*
X100898729Y-92926552D01*
X101000186Y-93009814D01*
X101083448Y-93111271D01*
X101112778Y-93147009D01*
X101196443Y-93303534D01*
X101247963Y-93473373D01*
X101265359Y-93650000D01*
X101247963Y-93826627D01*
X101196443Y-93996466D01*
X101112778Y-94152991D01*
X101083448Y-94188729D01*
X101000186Y-94290186D01*
X100912634Y-94362037D01*
X100862991Y-94402778D01*
X100706466Y-94486443D01*
X100536627Y-94537963D01*
X100470442Y-94544482D01*
X100404260Y-94551000D01*
X100315740Y-94551000D01*
X100249558Y-94544482D01*
X100183373Y-94537963D01*
X100013534Y-94486443D01*
X99857009Y-94402778D01*
X99807366Y-94362037D01*
X99719814Y-94290186D01*
X99636552Y-94188729D01*
X99607222Y-94152991D01*
X99523557Y-93996466D01*
X99472037Y-93826627D01*
X99454641Y-93650000D01*
X99472037Y-93473373D01*
X99523557Y-93303534D01*
X99607222Y-93147009D01*
X99636552Y-93111271D01*
X99719814Y-93009814D01*
X99821271Y-92926552D01*
X99857009Y-92897222D01*
X100013534Y-92813557D01*
X100183373Y-92762037D01*
X100249558Y-92755518D01*
X100315740Y-92749000D01*
X100404260Y-92749000D01*
X100470442Y-92755518D01*
X100470442Y-92755518D01*
G37*
G36*
X125870442Y-92755518D02*
G01*
X125936627Y-92762037D01*
X126106466Y-92813557D01*
X126262991Y-92897222D01*
X126298729Y-92926552D01*
X126400186Y-93009814D01*
X126483448Y-93111271D01*
X126512778Y-93147009D01*
X126596443Y-93303534D01*
X126647963Y-93473373D01*
X126665359Y-93650000D01*
X126647963Y-93826627D01*
X126596443Y-93996466D01*
X126512778Y-94152991D01*
X126483448Y-94188729D01*
X126400186Y-94290186D01*
X126312634Y-94362037D01*
X126262991Y-94402778D01*
X126106466Y-94486443D01*
X125936627Y-94537963D01*
X125870442Y-94544482D01*
X125804260Y-94551000D01*
X125715740Y-94551000D01*
X125649558Y-94544482D01*
X125583373Y-94537963D01*
X125413534Y-94486443D01*
X125257009Y-94402778D01*
X125207366Y-94362037D01*
X125119814Y-94290186D01*
X125036552Y-94188729D01*
X125007222Y-94152991D01*
X124923557Y-93996466D01*
X124872037Y-93826627D01*
X124854641Y-93650000D01*
X124872037Y-93473373D01*
X124923557Y-93303534D01*
X125007222Y-93147009D01*
X125036552Y-93111271D01*
X125119814Y-93009814D01*
X125221271Y-92926552D01*
X125257009Y-92897222D01*
X125413534Y-92813557D01*
X125583373Y-92762037D01*
X125649558Y-92755518D01*
X125715740Y-92749000D01*
X125804260Y-92749000D01*
X125870442Y-92755518D01*
X125870442Y-92755518D01*
G37*
G36*
X97930442Y-92755518D02*
G01*
X97996627Y-92762037D01*
X98166466Y-92813557D01*
X98322991Y-92897222D01*
X98358729Y-92926552D01*
X98460186Y-93009814D01*
X98543448Y-93111271D01*
X98572778Y-93147009D01*
X98656443Y-93303534D01*
X98707963Y-93473373D01*
X98725359Y-93650000D01*
X98707963Y-93826627D01*
X98656443Y-93996466D01*
X98572778Y-94152991D01*
X98543448Y-94188729D01*
X98460186Y-94290186D01*
X98372634Y-94362037D01*
X98322991Y-94402778D01*
X98166466Y-94486443D01*
X97996627Y-94537963D01*
X97930442Y-94544482D01*
X97864260Y-94551000D01*
X97775740Y-94551000D01*
X97709558Y-94544482D01*
X97643373Y-94537963D01*
X97473534Y-94486443D01*
X97317009Y-94402778D01*
X97267366Y-94362037D01*
X97179814Y-94290186D01*
X97096552Y-94188729D01*
X97067222Y-94152991D01*
X96983557Y-93996466D01*
X96932037Y-93826627D01*
X96914641Y-93650000D01*
X96932037Y-93473373D01*
X96983557Y-93303534D01*
X97067222Y-93147009D01*
X97096552Y-93111271D01*
X97179814Y-93009814D01*
X97281271Y-92926552D01*
X97317009Y-92897222D01*
X97473534Y-92813557D01*
X97643373Y-92762037D01*
X97709558Y-92755518D01*
X97775740Y-92749000D01*
X97864260Y-92749000D01*
X97930442Y-92755518D01*
X97930442Y-92755518D01*
G37*
G36*
X118250442Y-92755518D02*
G01*
X118316627Y-92762037D01*
X118486466Y-92813557D01*
X118642991Y-92897222D01*
X118678729Y-92926552D01*
X118780186Y-93009814D01*
X118863448Y-93111271D01*
X118892778Y-93147009D01*
X118976443Y-93303534D01*
X119027963Y-93473373D01*
X119045359Y-93650000D01*
X119027963Y-93826627D01*
X118976443Y-93996466D01*
X118892778Y-94152991D01*
X118863448Y-94188729D01*
X118780186Y-94290186D01*
X118692634Y-94362037D01*
X118642991Y-94402778D01*
X118486466Y-94486443D01*
X118316627Y-94537963D01*
X118250442Y-94544482D01*
X118184260Y-94551000D01*
X118095740Y-94551000D01*
X118029558Y-94544482D01*
X117963373Y-94537963D01*
X117793534Y-94486443D01*
X117637009Y-94402778D01*
X117587366Y-94362037D01*
X117499814Y-94290186D01*
X117416552Y-94188729D01*
X117387222Y-94152991D01*
X117303557Y-93996466D01*
X117252037Y-93826627D01*
X117234641Y-93650000D01*
X117252037Y-93473373D01*
X117303557Y-93303534D01*
X117387222Y-93147009D01*
X117416552Y-93111271D01*
X117499814Y-93009814D01*
X117601271Y-92926552D01*
X117637009Y-92897222D01*
X117793534Y-92813557D01*
X117963373Y-92762037D01*
X118029558Y-92755518D01*
X118095740Y-92749000D01*
X118184260Y-92749000D01*
X118250442Y-92755518D01*
X118250442Y-92755518D01*
G37*
G36*
X65671000Y-93611000D02*
G01*
X63869000Y-93611000D01*
X63869000Y-91809000D01*
X65671000Y-91809000D01*
X65671000Y-93611000D01*
X65671000Y-93611000D01*
G37*
G36*
X69481000Y-93611000D02*
G01*
X67679000Y-93611000D01*
X67679000Y-91809000D01*
X69481000Y-91809000D01*
X69481000Y-93611000D01*
X69481000Y-93611000D01*
G37*
G36*
X103010442Y-90215518D02*
G01*
X103076627Y-90222037D01*
X103246466Y-90273557D01*
X103402991Y-90357222D01*
X103438729Y-90386552D01*
X103540186Y-90469814D01*
X103623448Y-90571271D01*
X103652778Y-90607009D01*
X103736443Y-90763534D01*
X103787963Y-90933373D01*
X103805359Y-91110000D01*
X103787963Y-91286627D01*
X103736443Y-91456466D01*
X103652778Y-91612991D01*
X103623448Y-91648729D01*
X103540186Y-91750186D01*
X103438729Y-91833448D01*
X103402991Y-91862778D01*
X103246466Y-91946443D01*
X103076627Y-91997963D01*
X103010442Y-92004482D01*
X102944260Y-92011000D01*
X102855740Y-92011000D01*
X102789558Y-92004482D01*
X102723373Y-91997963D01*
X102553534Y-91946443D01*
X102397009Y-91862778D01*
X102361271Y-91833448D01*
X102259814Y-91750186D01*
X102176552Y-91648729D01*
X102147222Y-91612991D01*
X102063557Y-91456466D01*
X102012037Y-91286627D01*
X101994641Y-91110000D01*
X102012037Y-90933373D01*
X102063557Y-90763534D01*
X102147222Y-90607009D01*
X102176552Y-90571271D01*
X102259814Y-90469814D01*
X102361271Y-90386552D01*
X102397009Y-90357222D01*
X102553534Y-90273557D01*
X102723373Y-90222037D01*
X102789558Y-90215518D01*
X102855740Y-90209000D01*
X102944260Y-90209000D01*
X103010442Y-90215518D01*
X103010442Y-90215518D01*
G37*
G36*
X105550442Y-90215518D02*
G01*
X105616627Y-90222037D01*
X105786466Y-90273557D01*
X105942991Y-90357222D01*
X105978729Y-90386552D01*
X106080186Y-90469814D01*
X106163448Y-90571271D01*
X106192778Y-90607009D01*
X106276443Y-90763534D01*
X106327963Y-90933373D01*
X106345359Y-91110000D01*
X106327963Y-91286627D01*
X106276443Y-91456466D01*
X106192778Y-91612991D01*
X106163448Y-91648729D01*
X106080186Y-91750186D01*
X105978729Y-91833448D01*
X105942991Y-91862778D01*
X105786466Y-91946443D01*
X105616627Y-91997963D01*
X105550442Y-92004482D01*
X105484260Y-92011000D01*
X105395740Y-92011000D01*
X105329558Y-92004482D01*
X105263373Y-91997963D01*
X105093534Y-91946443D01*
X104937009Y-91862778D01*
X104901271Y-91833448D01*
X104799814Y-91750186D01*
X104716552Y-91648729D01*
X104687222Y-91612991D01*
X104603557Y-91456466D01*
X104552037Y-91286627D01*
X104534641Y-91110000D01*
X104552037Y-90933373D01*
X104603557Y-90763534D01*
X104687222Y-90607009D01*
X104716552Y-90571271D01*
X104799814Y-90469814D01*
X104901271Y-90386552D01*
X104937009Y-90357222D01*
X105093534Y-90273557D01*
X105263373Y-90222037D01*
X105329558Y-90215518D01*
X105395740Y-90209000D01*
X105484260Y-90209000D01*
X105550442Y-90215518D01*
X105550442Y-90215518D01*
G37*
G36*
X97930442Y-90215518D02*
G01*
X97996627Y-90222037D01*
X98166466Y-90273557D01*
X98322991Y-90357222D01*
X98358729Y-90386552D01*
X98460186Y-90469814D01*
X98543448Y-90571271D01*
X98572778Y-90607009D01*
X98656443Y-90763534D01*
X98707963Y-90933373D01*
X98725359Y-91110000D01*
X98707963Y-91286627D01*
X98656443Y-91456466D01*
X98572778Y-91612991D01*
X98543448Y-91648729D01*
X98460186Y-91750186D01*
X98358729Y-91833448D01*
X98322991Y-91862778D01*
X98166466Y-91946443D01*
X97996627Y-91997963D01*
X97930442Y-92004482D01*
X97864260Y-92011000D01*
X97775740Y-92011000D01*
X97709558Y-92004482D01*
X97643373Y-91997963D01*
X97473534Y-91946443D01*
X97317009Y-91862778D01*
X97281271Y-91833448D01*
X97179814Y-91750186D01*
X97096552Y-91648729D01*
X97067222Y-91612991D01*
X96983557Y-91456466D01*
X96932037Y-91286627D01*
X96914641Y-91110000D01*
X96932037Y-90933373D01*
X96983557Y-90763534D01*
X97067222Y-90607009D01*
X97096552Y-90571271D01*
X97179814Y-90469814D01*
X97281271Y-90386552D01*
X97317009Y-90357222D01*
X97473534Y-90273557D01*
X97643373Y-90222037D01*
X97709558Y-90215518D01*
X97775740Y-90209000D01*
X97864260Y-90209000D01*
X97930442Y-90215518D01*
X97930442Y-90215518D01*
G37*
G36*
X100470442Y-90215518D02*
G01*
X100536627Y-90222037D01*
X100706466Y-90273557D01*
X100862991Y-90357222D01*
X100898729Y-90386552D01*
X101000186Y-90469814D01*
X101083448Y-90571271D01*
X101112778Y-90607009D01*
X101196443Y-90763534D01*
X101247963Y-90933373D01*
X101265359Y-91110000D01*
X101247963Y-91286627D01*
X101196443Y-91456466D01*
X101112778Y-91612991D01*
X101083448Y-91648729D01*
X101000186Y-91750186D01*
X100898729Y-91833448D01*
X100862991Y-91862778D01*
X100706466Y-91946443D01*
X100536627Y-91997963D01*
X100470442Y-92004482D01*
X100404260Y-92011000D01*
X100315740Y-92011000D01*
X100249558Y-92004482D01*
X100183373Y-91997963D01*
X100013534Y-91946443D01*
X99857009Y-91862778D01*
X99821271Y-91833448D01*
X99719814Y-91750186D01*
X99636552Y-91648729D01*
X99607222Y-91612991D01*
X99523557Y-91456466D01*
X99472037Y-91286627D01*
X99454641Y-91110000D01*
X99472037Y-90933373D01*
X99523557Y-90763534D01*
X99607222Y-90607009D01*
X99636552Y-90571271D01*
X99719814Y-90469814D01*
X99821271Y-90386552D01*
X99857009Y-90357222D01*
X100013534Y-90273557D01*
X100183373Y-90222037D01*
X100249558Y-90215518D01*
X100315740Y-90209000D01*
X100404260Y-90209000D01*
X100470442Y-90215518D01*
X100470442Y-90215518D01*
G37*
G36*
X92850442Y-90215518D02*
G01*
X92916627Y-90222037D01*
X93086466Y-90273557D01*
X93242991Y-90357222D01*
X93278729Y-90386552D01*
X93380186Y-90469814D01*
X93463448Y-90571271D01*
X93492778Y-90607009D01*
X93576443Y-90763534D01*
X93627963Y-90933373D01*
X93645359Y-91110000D01*
X93627963Y-91286627D01*
X93576443Y-91456466D01*
X93492778Y-91612991D01*
X93463448Y-91648729D01*
X93380186Y-91750186D01*
X93278729Y-91833448D01*
X93242991Y-91862778D01*
X93086466Y-91946443D01*
X92916627Y-91997963D01*
X92850442Y-92004482D01*
X92784260Y-92011000D01*
X92695740Y-92011000D01*
X92629558Y-92004482D01*
X92563373Y-91997963D01*
X92393534Y-91946443D01*
X92237009Y-91862778D01*
X92201271Y-91833448D01*
X92099814Y-91750186D01*
X92016552Y-91648729D01*
X91987222Y-91612991D01*
X91903557Y-91456466D01*
X91852037Y-91286627D01*
X91834641Y-91110000D01*
X91852037Y-90933373D01*
X91903557Y-90763534D01*
X91987222Y-90607009D01*
X92016552Y-90571271D01*
X92099814Y-90469814D01*
X92201271Y-90386552D01*
X92237009Y-90357222D01*
X92393534Y-90273557D01*
X92563373Y-90222037D01*
X92629558Y-90215518D01*
X92695740Y-90209000D01*
X92784260Y-90209000D01*
X92850442Y-90215518D01*
X92850442Y-90215518D01*
G37*
G36*
X90310442Y-90215518D02*
G01*
X90376627Y-90222037D01*
X90546466Y-90273557D01*
X90702991Y-90357222D01*
X90738729Y-90386552D01*
X90840186Y-90469814D01*
X90923448Y-90571271D01*
X90952778Y-90607009D01*
X91036443Y-90763534D01*
X91087963Y-90933373D01*
X91105359Y-91110000D01*
X91087963Y-91286627D01*
X91036443Y-91456466D01*
X90952778Y-91612991D01*
X90923448Y-91648729D01*
X90840186Y-91750186D01*
X90738729Y-91833448D01*
X90702991Y-91862778D01*
X90546466Y-91946443D01*
X90376627Y-91997963D01*
X90310442Y-92004482D01*
X90244260Y-92011000D01*
X90155740Y-92011000D01*
X90089558Y-92004482D01*
X90023373Y-91997963D01*
X89853534Y-91946443D01*
X89697009Y-91862778D01*
X89661271Y-91833448D01*
X89559814Y-91750186D01*
X89476552Y-91648729D01*
X89447222Y-91612991D01*
X89363557Y-91456466D01*
X89312037Y-91286627D01*
X89294641Y-91110000D01*
X89312037Y-90933373D01*
X89363557Y-90763534D01*
X89447222Y-90607009D01*
X89476552Y-90571271D01*
X89559814Y-90469814D01*
X89661271Y-90386552D01*
X89697009Y-90357222D01*
X89853534Y-90273557D01*
X90023373Y-90222037D01*
X90089558Y-90215518D01*
X90155740Y-90209000D01*
X90244260Y-90209000D01*
X90310442Y-90215518D01*
X90310442Y-90215518D01*
G37*
G36*
X120790442Y-90215518D02*
G01*
X120856627Y-90222037D01*
X121026466Y-90273557D01*
X121182991Y-90357222D01*
X121218729Y-90386552D01*
X121320186Y-90469814D01*
X121403448Y-90571271D01*
X121432778Y-90607009D01*
X121516443Y-90763534D01*
X121567963Y-90933373D01*
X121585359Y-91110000D01*
X121567963Y-91286627D01*
X121516443Y-91456466D01*
X121432778Y-91612991D01*
X121403448Y-91648729D01*
X121320186Y-91750186D01*
X121218729Y-91833448D01*
X121182991Y-91862778D01*
X121026466Y-91946443D01*
X120856627Y-91997963D01*
X120790442Y-92004482D01*
X120724260Y-92011000D01*
X120635740Y-92011000D01*
X120569558Y-92004482D01*
X120503373Y-91997963D01*
X120333534Y-91946443D01*
X120177009Y-91862778D01*
X120141271Y-91833448D01*
X120039814Y-91750186D01*
X119956552Y-91648729D01*
X119927222Y-91612991D01*
X119843557Y-91456466D01*
X119792037Y-91286627D01*
X119774641Y-91110000D01*
X119792037Y-90933373D01*
X119843557Y-90763534D01*
X119927222Y-90607009D01*
X119956552Y-90571271D01*
X120039814Y-90469814D01*
X120141271Y-90386552D01*
X120177009Y-90357222D01*
X120333534Y-90273557D01*
X120503373Y-90222037D01*
X120569558Y-90215518D01*
X120635740Y-90209000D01*
X120724260Y-90209000D01*
X120790442Y-90215518D01*
X120790442Y-90215518D01*
G37*
G36*
X118250442Y-90215518D02*
G01*
X118316627Y-90222037D01*
X118486466Y-90273557D01*
X118642991Y-90357222D01*
X118678729Y-90386552D01*
X118780186Y-90469814D01*
X118863448Y-90571271D01*
X118892778Y-90607009D01*
X118976443Y-90763534D01*
X119027963Y-90933373D01*
X119045359Y-91110000D01*
X119027963Y-91286627D01*
X118976443Y-91456466D01*
X118892778Y-91612991D01*
X118863448Y-91648729D01*
X118780186Y-91750186D01*
X118678729Y-91833448D01*
X118642991Y-91862778D01*
X118486466Y-91946443D01*
X118316627Y-91997963D01*
X118250442Y-92004482D01*
X118184260Y-92011000D01*
X118095740Y-92011000D01*
X118029558Y-92004482D01*
X117963373Y-91997963D01*
X117793534Y-91946443D01*
X117637009Y-91862778D01*
X117601271Y-91833448D01*
X117499814Y-91750186D01*
X117416552Y-91648729D01*
X117387222Y-91612991D01*
X117303557Y-91456466D01*
X117252037Y-91286627D01*
X117234641Y-91110000D01*
X117252037Y-90933373D01*
X117303557Y-90763534D01*
X117387222Y-90607009D01*
X117416552Y-90571271D01*
X117499814Y-90469814D01*
X117601271Y-90386552D01*
X117637009Y-90357222D01*
X117793534Y-90273557D01*
X117963373Y-90222037D01*
X118029558Y-90215518D01*
X118095740Y-90209000D01*
X118184260Y-90209000D01*
X118250442Y-90215518D01*
X118250442Y-90215518D01*
G37*
G36*
X115710442Y-90215518D02*
G01*
X115776627Y-90222037D01*
X115946466Y-90273557D01*
X116102991Y-90357222D01*
X116138729Y-90386552D01*
X116240186Y-90469814D01*
X116323448Y-90571271D01*
X116352778Y-90607009D01*
X116436443Y-90763534D01*
X116487963Y-90933373D01*
X116505359Y-91110000D01*
X116487963Y-91286627D01*
X116436443Y-91456466D01*
X116352778Y-91612991D01*
X116323448Y-91648729D01*
X116240186Y-91750186D01*
X116138729Y-91833448D01*
X116102991Y-91862778D01*
X115946466Y-91946443D01*
X115776627Y-91997963D01*
X115710442Y-92004482D01*
X115644260Y-92011000D01*
X115555740Y-92011000D01*
X115489558Y-92004482D01*
X115423373Y-91997963D01*
X115253534Y-91946443D01*
X115097009Y-91862778D01*
X115061271Y-91833448D01*
X114959814Y-91750186D01*
X114876552Y-91648729D01*
X114847222Y-91612991D01*
X114763557Y-91456466D01*
X114712037Y-91286627D01*
X114694641Y-91110000D01*
X114712037Y-90933373D01*
X114763557Y-90763534D01*
X114847222Y-90607009D01*
X114876552Y-90571271D01*
X114959814Y-90469814D01*
X115061271Y-90386552D01*
X115097009Y-90357222D01*
X115253534Y-90273557D01*
X115423373Y-90222037D01*
X115489558Y-90215518D01*
X115555740Y-90209000D01*
X115644260Y-90209000D01*
X115710442Y-90215518D01*
X115710442Y-90215518D01*
G37*
G36*
X113170442Y-90215518D02*
G01*
X113236627Y-90222037D01*
X113406466Y-90273557D01*
X113562991Y-90357222D01*
X113598729Y-90386552D01*
X113700186Y-90469814D01*
X113783448Y-90571271D01*
X113812778Y-90607009D01*
X113896443Y-90763534D01*
X113947963Y-90933373D01*
X113965359Y-91110000D01*
X113947963Y-91286627D01*
X113896443Y-91456466D01*
X113812778Y-91612991D01*
X113783448Y-91648729D01*
X113700186Y-91750186D01*
X113598729Y-91833448D01*
X113562991Y-91862778D01*
X113406466Y-91946443D01*
X113236627Y-91997963D01*
X113170442Y-92004482D01*
X113104260Y-92011000D01*
X113015740Y-92011000D01*
X112949558Y-92004482D01*
X112883373Y-91997963D01*
X112713534Y-91946443D01*
X112557009Y-91862778D01*
X112521271Y-91833448D01*
X112419814Y-91750186D01*
X112336552Y-91648729D01*
X112307222Y-91612991D01*
X112223557Y-91456466D01*
X112172037Y-91286627D01*
X112154641Y-91110000D01*
X112172037Y-90933373D01*
X112223557Y-90763534D01*
X112307222Y-90607009D01*
X112336552Y-90571271D01*
X112419814Y-90469814D01*
X112521271Y-90386552D01*
X112557009Y-90357222D01*
X112713534Y-90273557D01*
X112883373Y-90222037D01*
X112949558Y-90215518D01*
X113015740Y-90209000D01*
X113104260Y-90209000D01*
X113170442Y-90215518D01*
X113170442Y-90215518D01*
G37*
G36*
X123330442Y-90215518D02*
G01*
X123396627Y-90222037D01*
X123566466Y-90273557D01*
X123722991Y-90357222D01*
X123758729Y-90386552D01*
X123860186Y-90469814D01*
X123943448Y-90571271D01*
X123972778Y-90607009D01*
X124056443Y-90763534D01*
X124107963Y-90933373D01*
X124125359Y-91110000D01*
X124107963Y-91286627D01*
X124056443Y-91456466D01*
X123972778Y-91612991D01*
X123943448Y-91648729D01*
X123860186Y-91750186D01*
X123758729Y-91833448D01*
X123722991Y-91862778D01*
X123566466Y-91946443D01*
X123396627Y-91997963D01*
X123330442Y-92004482D01*
X123264260Y-92011000D01*
X123175740Y-92011000D01*
X123109558Y-92004482D01*
X123043373Y-91997963D01*
X122873534Y-91946443D01*
X122717009Y-91862778D01*
X122681271Y-91833448D01*
X122579814Y-91750186D01*
X122496552Y-91648729D01*
X122467222Y-91612991D01*
X122383557Y-91456466D01*
X122332037Y-91286627D01*
X122314641Y-91110000D01*
X122332037Y-90933373D01*
X122383557Y-90763534D01*
X122467222Y-90607009D01*
X122496552Y-90571271D01*
X122579814Y-90469814D01*
X122681271Y-90386552D01*
X122717009Y-90357222D01*
X122873534Y-90273557D01*
X123043373Y-90222037D01*
X123109558Y-90215518D01*
X123175740Y-90209000D01*
X123264260Y-90209000D01*
X123330442Y-90215518D01*
X123330442Y-90215518D01*
G37*
G36*
X95390442Y-90215518D02*
G01*
X95456627Y-90222037D01*
X95626466Y-90273557D01*
X95782991Y-90357222D01*
X95818729Y-90386552D01*
X95920186Y-90469814D01*
X96003448Y-90571271D01*
X96032778Y-90607009D01*
X96116443Y-90763534D01*
X96167963Y-90933373D01*
X96185359Y-91110000D01*
X96167963Y-91286627D01*
X96116443Y-91456466D01*
X96032778Y-91612991D01*
X96003448Y-91648729D01*
X95920186Y-91750186D01*
X95818729Y-91833448D01*
X95782991Y-91862778D01*
X95626466Y-91946443D01*
X95456627Y-91997963D01*
X95390442Y-92004482D01*
X95324260Y-92011000D01*
X95235740Y-92011000D01*
X95169558Y-92004482D01*
X95103373Y-91997963D01*
X94933534Y-91946443D01*
X94777009Y-91862778D01*
X94741271Y-91833448D01*
X94639814Y-91750186D01*
X94556552Y-91648729D01*
X94527222Y-91612991D01*
X94443557Y-91456466D01*
X94392037Y-91286627D01*
X94374641Y-91110000D01*
X94392037Y-90933373D01*
X94443557Y-90763534D01*
X94527222Y-90607009D01*
X94556552Y-90571271D01*
X94639814Y-90469814D01*
X94741271Y-90386552D01*
X94777009Y-90357222D01*
X94933534Y-90273557D01*
X95103373Y-90222037D01*
X95169558Y-90215518D01*
X95235740Y-90209000D01*
X95324260Y-90209000D01*
X95390442Y-90215518D01*
X95390442Y-90215518D01*
G37*
G36*
X108090442Y-90215518D02*
G01*
X108156627Y-90222037D01*
X108326466Y-90273557D01*
X108482991Y-90357222D01*
X108518729Y-90386552D01*
X108620186Y-90469814D01*
X108703448Y-90571271D01*
X108732778Y-90607009D01*
X108816443Y-90763534D01*
X108867963Y-90933373D01*
X108885359Y-91110000D01*
X108867963Y-91286627D01*
X108816443Y-91456466D01*
X108732778Y-91612991D01*
X108703448Y-91648729D01*
X108620186Y-91750186D01*
X108518729Y-91833448D01*
X108482991Y-91862778D01*
X108326466Y-91946443D01*
X108156627Y-91997963D01*
X108090442Y-92004482D01*
X108024260Y-92011000D01*
X107935740Y-92011000D01*
X107869558Y-92004482D01*
X107803373Y-91997963D01*
X107633534Y-91946443D01*
X107477009Y-91862778D01*
X107441271Y-91833448D01*
X107339814Y-91750186D01*
X107256552Y-91648729D01*
X107227222Y-91612991D01*
X107143557Y-91456466D01*
X107092037Y-91286627D01*
X107074641Y-91110000D01*
X107092037Y-90933373D01*
X107143557Y-90763534D01*
X107227222Y-90607009D01*
X107256552Y-90571271D01*
X107339814Y-90469814D01*
X107441271Y-90386552D01*
X107477009Y-90357222D01*
X107633534Y-90273557D01*
X107803373Y-90222037D01*
X107869558Y-90215518D01*
X107935740Y-90209000D01*
X108024260Y-90209000D01*
X108090442Y-90215518D01*
X108090442Y-90215518D01*
G37*
G36*
X138570442Y-90215518D02*
G01*
X138636627Y-90222037D01*
X138806466Y-90273557D01*
X138962991Y-90357222D01*
X138998729Y-90386552D01*
X139100186Y-90469814D01*
X139183448Y-90571271D01*
X139212778Y-90607009D01*
X139296443Y-90763534D01*
X139347963Y-90933373D01*
X139365359Y-91110000D01*
X139347963Y-91286627D01*
X139296443Y-91456466D01*
X139212778Y-91612991D01*
X139183448Y-91648729D01*
X139100186Y-91750186D01*
X138998729Y-91833448D01*
X138962991Y-91862778D01*
X138806466Y-91946443D01*
X138636627Y-91997963D01*
X138570442Y-92004482D01*
X138504260Y-92011000D01*
X138415740Y-92011000D01*
X138349558Y-92004482D01*
X138283373Y-91997963D01*
X138113534Y-91946443D01*
X137957009Y-91862778D01*
X137921271Y-91833448D01*
X137819814Y-91750186D01*
X137736552Y-91648729D01*
X137707222Y-91612991D01*
X137623557Y-91456466D01*
X137572037Y-91286627D01*
X137554641Y-91110000D01*
X137572037Y-90933373D01*
X137623557Y-90763534D01*
X137707222Y-90607009D01*
X137736552Y-90571271D01*
X137819814Y-90469814D01*
X137921271Y-90386552D01*
X137957009Y-90357222D01*
X138113534Y-90273557D01*
X138283373Y-90222037D01*
X138349558Y-90215518D01*
X138415740Y-90209000D01*
X138504260Y-90209000D01*
X138570442Y-90215518D01*
X138570442Y-90215518D01*
G37*
G36*
X136030442Y-90215518D02*
G01*
X136096627Y-90222037D01*
X136266466Y-90273557D01*
X136422991Y-90357222D01*
X136458729Y-90386552D01*
X136560186Y-90469814D01*
X136643448Y-90571271D01*
X136672778Y-90607009D01*
X136756443Y-90763534D01*
X136807963Y-90933373D01*
X136825359Y-91110000D01*
X136807963Y-91286627D01*
X136756443Y-91456466D01*
X136672778Y-91612991D01*
X136643448Y-91648729D01*
X136560186Y-91750186D01*
X136458729Y-91833448D01*
X136422991Y-91862778D01*
X136266466Y-91946443D01*
X136096627Y-91997963D01*
X136030442Y-92004482D01*
X135964260Y-92011000D01*
X135875740Y-92011000D01*
X135809558Y-92004482D01*
X135743373Y-91997963D01*
X135573534Y-91946443D01*
X135417009Y-91862778D01*
X135381271Y-91833448D01*
X135279814Y-91750186D01*
X135196552Y-91648729D01*
X135167222Y-91612991D01*
X135083557Y-91456466D01*
X135032037Y-91286627D01*
X135014641Y-91110000D01*
X135032037Y-90933373D01*
X135083557Y-90763534D01*
X135167222Y-90607009D01*
X135196552Y-90571271D01*
X135279814Y-90469814D01*
X135381271Y-90386552D01*
X135417009Y-90357222D01*
X135573534Y-90273557D01*
X135743373Y-90222037D01*
X135809558Y-90215518D01*
X135875740Y-90209000D01*
X135964260Y-90209000D01*
X136030442Y-90215518D01*
X136030442Y-90215518D01*
G37*
G36*
X133490442Y-90215518D02*
G01*
X133556627Y-90222037D01*
X133726466Y-90273557D01*
X133882991Y-90357222D01*
X133918729Y-90386552D01*
X134020186Y-90469814D01*
X134103448Y-90571271D01*
X134132778Y-90607009D01*
X134216443Y-90763534D01*
X134267963Y-90933373D01*
X134285359Y-91110000D01*
X134267963Y-91286627D01*
X134216443Y-91456466D01*
X134132778Y-91612991D01*
X134103448Y-91648729D01*
X134020186Y-91750186D01*
X133918729Y-91833448D01*
X133882991Y-91862778D01*
X133726466Y-91946443D01*
X133556627Y-91997963D01*
X133490442Y-92004482D01*
X133424260Y-92011000D01*
X133335740Y-92011000D01*
X133269558Y-92004482D01*
X133203373Y-91997963D01*
X133033534Y-91946443D01*
X132877009Y-91862778D01*
X132841271Y-91833448D01*
X132739814Y-91750186D01*
X132656552Y-91648729D01*
X132627222Y-91612991D01*
X132543557Y-91456466D01*
X132492037Y-91286627D01*
X132474641Y-91110000D01*
X132492037Y-90933373D01*
X132543557Y-90763534D01*
X132627222Y-90607009D01*
X132656552Y-90571271D01*
X132739814Y-90469814D01*
X132841271Y-90386552D01*
X132877009Y-90357222D01*
X133033534Y-90273557D01*
X133203373Y-90222037D01*
X133269558Y-90215518D01*
X133335740Y-90209000D01*
X133424260Y-90209000D01*
X133490442Y-90215518D01*
X133490442Y-90215518D01*
G37*
G36*
X130950442Y-90215518D02*
G01*
X131016627Y-90222037D01*
X131186466Y-90273557D01*
X131342991Y-90357222D01*
X131378729Y-90386552D01*
X131480186Y-90469814D01*
X131563448Y-90571271D01*
X131592778Y-90607009D01*
X131676443Y-90763534D01*
X131727963Y-90933373D01*
X131745359Y-91110000D01*
X131727963Y-91286627D01*
X131676443Y-91456466D01*
X131592778Y-91612991D01*
X131563448Y-91648729D01*
X131480186Y-91750186D01*
X131378729Y-91833448D01*
X131342991Y-91862778D01*
X131186466Y-91946443D01*
X131016627Y-91997963D01*
X130950442Y-92004482D01*
X130884260Y-92011000D01*
X130795740Y-92011000D01*
X130729558Y-92004482D01*
X130663373Y-91997963D01*
X130493534Y-91946443D01*
X130337009Y-91862778D01*
X130301271Y-91833448D01*
X130199814Y-91750186D01*
X130116552Y-91648729D01*
X130087222Y-91612991D01*
X130003557Y-91456466D01*
X129952037Y-91286627D01*
X129934641Y-91110000D01*
X129952037Y-90933373D01*
X130003557Y-90763534D01*
X130087222Y-90607009D01*
X130116552Y-90571271D01*
X130199814Y-90469814D01*
X130301271Y-90386552D01*
X130337009Y-90357222D01*
X130493534Y-90273557D01*
X130663373Y-90222037D01*
X130729558Y-90215518D01*
X130795740Y-90209000D01*
X130884260Y-90209000D01*
X130950442Y-90215518D01*
X130950442Y-90215518D01*
G37*
G36*
X128410442Y-90215518D02*
G01*
X128476627Y-90222037D01*
X128646466Y-90273557D01*
X128802991Y-90357222D01*
X128838729Y-90386552D01*
X128940186Y-90469814D01*
X129023448Y-90571271D01*
X129052778Y-90607009D01*
X129136443Y-90763534D01*
X129187963Y-90933373D01*
X129205359Y-91110000D01*
X129187963Y-91286627D01*
X129136443Y-91456466D01*
X129052778Y-91612991D01*
X129023448Y-91648729D01*
X128940186Y-91750186D01*
X128838729Y-91833448D01*
X128802991Y-91862778D01*
X128646466Y-91946443D01*
X128476627Y-91997963D01*
X128410442Y-92004482D01*
X128344260Y-92011000D01*
X128255740Y-92011000D01*
X128189558Y-92004482D01*
X128123373Y-91997963D01*
X127953534Y-91946443D01*
X127797009Y-91862778D01*
X127761271Y-91833448D01*
X127659814Y-91750186D01*
X127576552Y-91648729D01*
X127547222Y-91612991D01*
X127463557Y-91456466D01*
X127412037Y-91286627D01*
X127394641Y-91110000D01*
X127412037Y-90933373D01*
X127463557Y-90763534D01*
X127547222Y-90607009D01*
X127576552Y-90571271D01*
X127659814Y-90469814D01*
X127761271Y-90386552D01*
X127797009Y-90357222D01*
X127953534Y-90273557D01*
X128123373Y-90222037D01*
X128189558Y-90215518D01*
X128255740Y-90209000D01*
X128344260Y-90209000D01*
X128410442Y-90215518D01*
X128410442Y-90215518D01*
G37*
G36*
X125870442Y-90215518D02*
G01*
X125936627Y-90222037D01*
X126106466Y-90273557D01*
X126262991Y-90357222D01*
X126298729Y-90386552D01*
X126400186Y-90469814D01*
X126483448Y-90571271D01*
X126512778Y-90607009D01*
X126596443Y-90763534D01*
X126647963Y-90933373D01*
X126665359Y-91110000D01*
X126647963Y-91286627D01*
X126596443Y-91456466D01*
X126512778Y-91612991D01*
X126483448Y-91648729D01*
X126400186Y-91750186D01*
X126298729Y-91833448D01*
X126262991Y-91862778D01*
X126106466Y-91946443D01*
X125936627Y-91997963D01*
X125870442Y-92004482D01*
X125804260Y-92011000D01*
X125715740Y-92011000D01*
X125649558Y-92004482D01*
X125583373Y-91997963D01*
X125413534Y-91946443D01*
X125257009Y-91862778D01*
X125221271Y-91833448D01*
X125119814Y-91750186D01*
X125036552Y-91648729D01*
X125007222Y-91612991D01*
X124923557Y-91456466D01*
X124872037Y-91286627D01*
X124854641Y-91110000D01*
X124872037Y-90933373D01*
X124923557Y-90763534D01*
X125007222Y-90607009D01*
X125036552Y-90571271D01*
X125119814Y-90469814D01*
X125221271Y-90386552D01*
X125257009Y-90357222D01*
X125413534Y-90273557D01*
X125583373Y-90222037D01*
X125649558Y-90215518D01*
X125715740Y-90209000D01*
X125804260Y-90209000D01*
X125870442Y-90215518D01*
X125870442Y-90215518D01*
G37*
G36*
X110630442Y-90215518D02*
G01*
X110696627Y-90222037D01*
X110866466Y-90273557D01*
X111022991Y-90357222D01*
X111058729Y-90386552D01*
X111160186Y-90469814D01*
X111243448Y-90571271D01*
X111272778Y-90607009D01*
X111356443Y-90763534D01*
X111407963Y-90933373D01*
X111425359Y-91110000D01*
X111407963Y-91286627D01*
X111356443Y-91456466D01*
X111272778Y-91612991D01*
X111243448Y-91648729D01*
X111160186Y-91750186D01*
X111058729Y-91833448D01*
X111022991Y-91862778D01*
X110866466Y-91946443D01*
X110696627Y-91997963D01*
X110630442Y-92004482D01*
X110564260Y-92011000D01*
X110475740Y-92011000D01*
X110409558Y-92004482D01*
X110343373Y-91997963D01*
X110173534Y-91946443D01*
X110017009Y-91862778D01*
X109981271Y-91833448D01*
X109879814Y-91750186D01*
X109796552Y-91648729D01*
X109767222Y-91612991D01*
X109683557Y-91456466D01*
X109632037Y-91286627D01*
X109614641Y-91110000D01*
X109632037Y-90933373D01*
X109683557Y-90763534D01*
X109767222Y-90607009D01*
X109796552Y-90571271D01*
X109879814Y-90469814D01*
X109981271Y-90386552D01*
X110017009Y-90357222D01*
X110173534Y-90273557D01*
X110343373Y-90222037D01*
X110409558Y-90215518D01*
X110475740Y-90209000D01*
X110564260Y-90209000D01*
X110630442Y-90215518D01*
X110630442Y-90215518D01*
G37*
M02*
