G04 #@! TF.GenerationSoftware,KiCad,Pcbnew,(5.1.2)-2*
G04 #@! TF.CreationDate,2019-09-19T18:24:33+10:00*
G04 #@! TF.ProjectId,PecsRemoteHat.lib,50656373-5265-46d6-9f74-654861742e6c,rev?*
G04 #@! TF.SameCoordinates,Original*
G04 #@! TF.FileFunction,Legend,Bot*
G04 #@! TF.FilePolarity,Positive*
%FSLAX46Y46*%
G04 Gerber Fmt 4.6, Leading zero omitted, Abs format (unit mm)*
G04 Created by KiCad (PCBNEW (5.1.2)-2) date 2019-09-19 18:24:33*
%MOMM*%
%LPD*%
G04 APERTURE LIST*
%ADD10C,0.120000*%
%ADD11C,0.150000*%
G04 APERTURE END LIST*
D10*
X66040000Y-91440000D02*
X64770000Y-91440000D01*
X66040000Y-92710000D02*
X66040000Y-91440000D01*
X63727071Y-110870000D02*
X63330000Y-110870000D01*
X63727071Y-110110000D02*
X63330000Y-110110000D01*
X54670000Y-110870000D02*
X60670000Y-110870000D01*
X54670000Y-110110000D02*
X54670000Y-110870000D01*
X60670000Y-110110000D02*
X54670000Y-110110000D01*
X63330000Y-109220000D02*
X60670000Y-109220000D01*
X63727071Y-108330000D02*
X63330000Y-108330000D01*
X63727071Y-107570000D02*
X63330000Y-107570000D01*
X54670000Y-108330000D02*
X60670000Y-108330000D01*
X54670000Y-107570000D02*
X54670000Y-108330000D01*
X60670000Y-107570000D02*
X54670000Y-107570000D01*
X63330000Y-106680000D02*
X60670000Y-106680000D01*
X63727071Y-105790000D02*
X63330000Y-105790000D01*
X63727071Y-105030000D02*
X63330000Y-105030000D01*
X54670000Y-105790000D02*
X60670000Y-105790000D01*
X54670000Y-105030000D02*
X54670000Y-105790000D01*
X60670000Y-105030000D02*
X54670000Y-105030000D01*
X63330000Y-104140000D02*
X60670000Y-104140000D01*
X63727071Y-103250000D02*
X63330000Y-103250000D01*
X63727071Y-102490000D02*
X63330000Y-102490000D01*
X54670000Y-103250000D02*
X60670000Y-103250000D01*
X54670000Y-102490000D02*
X54670000Y-103250000D01*
X60670000Y-102490000D02*
X54670000Y-102490000D01*
X63330000Y-101600000D02*
X60670000Y-101600000D01*
X63727071Y-100710000D02*
X63330000Y-100710000D01*
X63727071Y-99950000D02*
X63330000Y-99950000D01*
X54670000Y-100710000D02*
X60670000Y-100710000D01*
X54670000Y-99950000D02*
X54670000Y-100710000D01*
X60670000Y-99950000D02*
X54670000Y-99950000D01*
X63330000Y-99060000D02*
X60670000Y-99060000D01*
X63727071Y-98170000D02*
X63330000Y-98170000D01*
X63727071Y-97410000D02*
X63330000Y-97410000D01*
X54670000Y-98170000D02*
X60670000Y-98170000D01*
X54670000Y-97410000D02*
X54670000Y-98170000D01*
X60670000Y-97410000D02*
X54670000Y-97410000D01*
X63330000Y-96520000D02*
X60670000Y-96520000D01*
X63727071Y-95630000D02*
X63330000Y-95630000D01*
X63727071Y-94870000D02*
X63330000Y-94870000D01*
X54670000Y-95630000D02*
X60670000Y-95630000D01*
X54670000Y-94870000D02*
X54670000Y-95630000D01*
X60670000Y-94870000D02*
X54670000Y-94870000D01*
X63330000Y-93980000D02*
X60670000Y-93980000D01*
X63660000Y-93090000D02*
X63330000Y-93090000D01*
X63660000Y-92330000D02*
X63330000Y-92330000D01*
X60670000Y-92990000D02*
X54670000Y-92990000D01*
X60670000Y-92870000D02*
X54670000Y-92870000D01*
X60670000Y-92750000D02*
X54670000Y-92750000D01*
X60670000Y-92630000D02*
X54670000Y-92630000D01*
X60670000Y-92510000D02*
X54670000Y-92510000D01*
X60670000Y-92390000D02*
X54670000Y-92390000D01*
X54670000Y-93090000D02*
X60670000Y-93090000D01*
X54670000Y-92330000D02*
X54670000Y-93090000D01*
X60670000Y-92330000D02*
X54670000Y-92330000D01*
X60670000Y-91380000D02*
X63330000Y-91380000D01*
X60670000Y-111820000D02*
X60670000Y-91380000D01*
X63330000Y-111820000D02*
X60670000Y-111820000D01*
X63330000Y-91380000D02*
X63330000Y-111820000D01*
X81280000Y-124480000D02*
X84730000Y-124480000D01*
X81280000Y-124480000D02*
X79330000Y-124480000D01*
X81280000Y-134600000D02*
X83230000Y-134600000D01*
X81280000Y-134600000D02*
X79330000Y-134600000D01*
X137740000Y-146000000D02*
X126890000Y-146000000D01*
X137740000Y-140900000D02*
X137740000Y-146000000D01*
X137240000Y-141200000D02*
X137740000Y-140900000D01*
X137240000Y-135800000D02*
X137240000Y-141200000D01*
X137740000Y-136050000D02*
X137240000Y-135800000D01*
X137740000Y-136000000D02*
X137740000Y-136050000D01*
X137740000Y-134100000D02*
X137740000Y-136000000D01*
X137240000Y-134350000D02*
X137740000Y-134100000D01*
X137240000Y-133400000D02*
X137240000Y-134350000D01*
X126890000Y-133400000D02*
X137240000Y-133400000D01*
X126890000Y-146000000D02*
X126890000Y-133400000D01*
X61910000Y-127290000D02*
X52560000Y-127290000D01*
X61910000Y-143780000D02*
X61910000Y-115300000D01*
X61910000Y-143780000D02*
X52560000Y-143780000D01*
X61910000Y-131790000D02*
X52560000Y-131790000D01*
X61910000Y-115300000D02*
X52560000Y-115300000D01*
X52560000Y-115300000D02*
X52560000Y-143780000D01*
X66040000Y-119380000D02*
X67310000Y-119380000D01*
X67310000Y-119380000D02*
X67310000Y-120650000D01*
X79885436Y-121090000D02*
X81089564Y-121090000D01*
X79885436Y-122910000D02*
X81089564Y-122910000D01*
D11*
X63218333Y-89892380D02*
X62646904Y-89892380D01*
X62932619Y-90892380D02*
X62932619Y-89892380D01*
X62123095Y-89892380D02*
X61932619Y-89892380D01*
X61837380Y-89940000D01*
X61742142Y-90035238D01*
X61694523Y-90225714D01*
X61694523Y-90559047D01*
X61742142Y-90749523D01*
X61837380Y-90844761D01*
X61932619Y-90892380D01*
X62123095Y-90892380D01*
X62218333Y-90844761D01*
X62313571Y-90749523D01*
X62361190Y-90559047D01*
X62361190Y-90225714D01*
X62313571Y-90035238D01*
X62218333Y-89940000D01*
X62123095Y-89892380D01*
X61265952Y-89892380D02*
X61265952Y-90701904D01*
X61218333Y-90797142D01*
X61170714Y-90844761D01*
X61075476Y-90892380D01*
X60885000Y-90892380D01*
X60789761Y-90844761D01*
X60742142Y-90797142D01*
X60694523Y-90701904D01*
X60694523Y-89892380D01*
X59646904Y-90797142D02*
X59694523Y-90844761D01*
X59837380Y-90892380D01*
X59932619Y-90892380D01*
X60075476Y-90844761D01*
X60170714Y-90749523D01*
X60218333Y-90654285D01*
X60265952Y-90463809D01*
X60265952Y-90320952D01*
X60218333Y-90130476D01*
X60170714Y-90035238D01*
X60075476Y-89940000D01*
X59932619Y-89892380D01*
X59837380Y-89892380D01*
X59694523Y-89940000D01*
X59646904Y-89987619D01*
X59218333Y-90892380D02*
X59218333Y-89892380D01*
X59218333Y-90368571D02*
X58646904Y-90368571D01*
X58646904Y-90892380D02*
X58646904Y-89892380D01*
X57646904Y-90892380D02*
X58218333Y-90892380D01*
X57932619Y-90892380D02*
X57932619Y-89892380D01*
X58027857Y-90035238D01*
X58123095Y-90130476D01*
X58218333Y-90178095D01*
X82011904Y-135202380D02*
X82011904Y-136011904D01*
X81964285Y-136107142D01*
X81916666Y-136154761D01*
X81821428Y-136202380D01*
X81630952Y-136202380D01*
X81535714Y-136154761D01*
X81488095Y-136107142D01*
X81440476Y-136011904D01*
X81440476Y-135202380D01*
X80440476Y-136202380D02*
X81011904Y-136202380D01*
X80726190Y-136202380D02*
X80726190Y-135202380D01*
X80821428Y-135345238D01*
X80916666Y-135440476D01*
X81011904Y-135488095D01*
X126083333Y-143952380D02*
X126083333Y-142952380D01*
X125702380Y-142952380D01*
X125607142Y-143000000D01*
X125559523Y-143047619D01*
X125511904Y-143142857D01*
X125511904Y-143285714D01*
X125559523Y-143380952D01*
X125607142Y-143428571D01*
X125702380Y-143476190D01*
X126083333Y-143476190D01*
X124892857Y-142952380D02*
X124702380Y-142952380D01*
X124607142Y-143000000D01*
X124511904Y-143095238D01*
X124464285Y-143285714D01*
X124464285Y-143619047D01*
X124511904Y-143809523D01*
X124607142Y-143904761D01*
X124702380Y-143952380D01*
X124892857Y-143952380D01*
X124988095Y-143904761D01*
X125083333Y-143809523D01*
X125130952Y-143619047D01*
X125130952Y-143285714D01*
X125083333Y-143095238D01*
X124988095Y-143000000D01*
X124892857Y-142952380D01*
X124130952Y-142952380D02*
X123892857Y-143952380D01*
X123702380Y-143238095D01*
X123511904Y-143952380D01*
X123273809Y-142952380D01*
X122369047Y-143952380D02*
X122940476Y-143952380D01*
X122654761Y-143952380D02*
X122654761Y-142952380D01*
X122750000Y-143095238D01*
X122845238Y-143190476D01*
X122940476Y-143238095D01*
X69202380Y-130833333D02*
X69202380Y-130357142D01*
X68202380Y-130357142D01*
X69107142Y-131738095D02*
X69154761Y-131690476D01*
X69202380Y-131547619D01*
X69202380Y-131452380D01*
X69154761Y-131309523D01*
X69059523Y-131214285D01*
X68964285Y-131166666D01*
X68773809Y-131119047D01*
X68630952Y-131119047D01*
X68440476Y-131166666D01*
X68345238Y-131214285D01*
X68250000Y-131309523D01*
X68202380Y-131452380D01*
X68202380Y-131547619D01*
X68250000Y-131690476D01*
X68297619Y-131738095D01*
X69202380Y-132166666D02*
X68202380Y-132166666D01*
X68202380Y-132404761D01*
X68250000Y-132547619D01*
X68345238Y-132642857D01*
X68440476Y-132690476D01*
X68630952Y-132738095D01*
X68773809Y-132738095D01*
X68964285Y-132690476D01*
X69059523Y-132642857D01*
X69154761Y-132547619D01*
X69202380Y-132404761D01*
X69202380Y-132166666D01*
X69202380Y-133690476D02*
X69202380Y-133119047D01*
X69202380Y-133404761D02*
X68202380Y-133404761D01*
X68345238Y-133309523D01*
X68440476Y-133214285D01*
X68488095Y-133119047D01*
X80916666Y-120107142D02*
X80964285Y-120154761D01*
X81107142Y-120202380D01*
X81202380Y-120202380D01*
X81345238Y-120154761D01*
X81440476Y-120059523D01*
X81488095Y-119964285D01*
X81535714Y-119773809D01*
X81535714Y-119630952D01*
X81488095Y-119440476D01*
X81440476Y-119345238D01*
X81345238Y-119250000D01*
X81202380Y-119202380D01*
X81107142Y-119202380D01*
X80964285Y-119250000D01*
X80916666Y-119297619D01*
X80345238Y-119630952D02*
X80440476Y-119583333D01*
X80488095Y-119535714D01*
X80535714Y-119440476D01*
X80535714Y-119392857D01*
X80488095Y-119297619D01*
X80440476Y-119250000D01*
X80345238Y-119202380D01*
X80154761Y-119202380D01*
X80059523Y-119250000D01*
X80011904Y-119297619D01*
X79964285Y-119392857D01*
X79964285Y-119440476D01*
X80011904Y-119535714D01*
X80059523Y-119583333D01*
X80154761Y-119630952D01*
X80345238Y-119630952D01*
X80440476Y-119678571D01*
X80488095Y-119726190D01*
X80535714Y-119821428D01*
X80535714Y-120011904D01*
X80488095Y-120107142D01*
X80440476Y-120154761D01*
X80345238Y-120202380D01*
X80154761Y-120202380D01*
X80059523Y-120154761D01*
X80011904Y-120107142D01*
X79964285Y-120011904D01*
X79964285Y-119821428D01*
X80011904Y-119726190D01*
X80059523Y-119678571D01*
X80154761Y-119630952D01*
M02*
