M48
INCH,TZ
T1C0.0157
T2C0.0394
T3C0.0400
T4C0.0433
T5C0.0520
%
G90
G05
T1
X28000Y-46250
X28000Y-48500
X28500Y-49000
X28750Y-46750
X29035Y-47343
X29035Y-49409
X29232Y-40059
X29528Y-38681
X30124Y-41037
X30315Y-48031
X33957Y-51752
X35728Y-39469
X35728Y-40945
X36500Y-42500
X37000Y-40500
X37500Y-41500
X38091Y-39173
X38091Y-47343
X38500Y-49250
X39000Y-46250
X39370Y-38750
X39370Y-46750
X39750Y-50750
X40000Y-49750
X40250Y-50250
X56220Y-48280
X56220Y-48780
X56500Y-44000
X56500Y-44500
T2
X54500Y-44094
X55500Y-44094
X25500Y-36500
X25500Y-37500
X25500Y-38500
X25500Y-39500
X25500Y-40500
X25500Y-41500
X25500Y-42500
X25500Y-43500
X27000Y-36500
X27000Y-37500
X27000Y-38500
X27000Y-39500
X27000Y-40500
X27000Y-41500
X27000Y-42500
X27000Y-43500
X27000Y-44500
X27000Y-45500
X27000Y-46500
X27000Y-47500
X33000Y-39500
X33000Y-40500
X33000Y-41500
X33000Y-42500
X33000Y-43500
X33000Y-44500
X35512Y-35870
X35512Y-36870
X36512Y-35870
X36512Y-36870
X37512Y-35870
X37512Y-36870
X38512Y-35870
X38512Y-36870
X39512Y-35870
X39512Y-36870
X40512Y-35870
X40512Y-36870
X41512Y-35870
X41512Y-36870
X42512Y-35870
X42512Y-36870
X43512Y-35870
X43512Y-36870
X44512Y-35870
X44512Y-36870
X45512Y-35870
X45512Y-36870
X46512Y-35870
X46512Y-36870
X47512Y-35870
X47512Y-36870
X48512Y-35870
X48512Y-36870
X49512Y-35870
X49512Y-36870
X50512Y-35870
X50512Y-36870
X51512Y-35870
X51512Y-36870
X52512Y-35870
X52512Y-36870
X53512Y-35870
X53512Y-36870
X54512Y-35870
X54512Y-36870
X39000Y-54000
X39000Y-55000
X48000Y-54000
X48000Y-55000
T3
X25000Y-47500
X25000Y-48500
X25000Y-49500
X25000Y-50500
X25000Y-51500
X25000Y-52500
X25000Y-53500
X25000Y-54500
X26000Y-47500
X26000Y-48500
X26000Y-49500
X26000Y-50500
X26000Y-51500
X26000Y-52500
X26000Y-53500
X26000Y-54500
T4
X53150Y-44094
X53150Y-48094
T5
X51000Y-55000
X52969Y-55000
T0
M30
